<svg width="22" height="22" viewBox="0 0 22 22" fill="none" xmlns="http://www.w3.org/2000/svg">
<path opacity="0.4" d="M17.2411 8.26917C16.8272 8.26917 16.279 8.26 15.5964 8.26C13.9318 8.26 12.5631 6.88225 12.5631 5.202V2.254C12.5631 2.02209 12.3779 1.83325 12.1483 1.83325H7.29966C5.03691 1.83325 3.20801 3.69042 3.20801 5.9665V15.8436C3.20801 18.2315 5.12404 20.1666 7.48845 20.1666H14.7088C16.9633 20.1666 18.7913 18.3213 18.7913 16.0434V8.68167C18.7913 8.44883 18.6071 8.26092 18.3765 8.26183C17.989 8.26458 17.5243 8.26917 17.2411 8.26917Z" fill="#C9C1FF"/>
<path d="M14.7438 2.35342C14.4697 2.06834 13.9912 2.26451 13.9912 2.65959V5.07684C13.9912 6.09067 14.8263 6.92484 15.8401 6.92484C16.479 6.93217 17.3664 6.93401 18.1199 6.93217C18.5058 6.93126 18.702 6.47017 18.4343 6.19151C17.4672 5.18592 15.7356 3.38376 14.7438 2.35342Z" fill="#3425FF"/>
<path d="M13.2161 13.6517C13.5929 13.6517 13.899 13.9579 13.899 14.3347C13.899 14.7114 13.5929 15.0167 13.2161 15.0167H8.22579C7.84904 15.0167 7.54379 14.7114 7.54379 14.3347C7.54379 13.9579 7.84904 13.6517 8.22579 13.6517H13.2161ZM11.3286 9.07373C11.7054 9.07373 12.0115 9.3799 12.0115 9.75665C12.0115 10.1334 11.7054 10.4386 11.3286 10.4386H8.2257C7.84895 10.4386 7.5437 10.1334 7.5437 9.75665C7.5437 9.3799 7.84895 9.07373 8.2257 9.07373H11.3286Z" fill="#3425FF"/>
</svg>
