<svg width="13" height="14" viewBox="0 0 13 14" fill="none" xmlns="http://www.w3.org/2000/svg">
<path d="M12.5677 12.1004L12.567 12.0997L9.33601 8.85383C10.0024 8.0003 10.4033 6.92369 10.4033 5.75916C10.4033 2.95553 8.12229 0.674561 5.31875 0.674561C2.51522 0.674561 0.234253 2.95553 0.234253 5.75906C0.234253 8.55771 2.51522 10.8386 5.31875 10.8386C6.43346 10.8386 7.46037 10.4769 8.298 9.86484L11.5441 13.1159L11.5445 13.1163C11.6796 13.2566 11.8675 13.3255 12.0584 13.3255C12.482 13.3255 12.7658 13.0018 12.7658 12.6032C12.7658 12.4064 12.6964 12.2343 12.5677 12.1004ZM1.26625 5.75906C1.26625 3.52414 3.08373 1.70656 5.31875 1.70656C7.55368 1.70656 9.36627 3.52404 9.36627 5.75906C9.36627 7.98909 7.55368 9.80657 5.31875 9.80657C3.08373 9.80657 1.26625 7.98909 1.26625 5.75906Z" fill="#A1A5B0" stroke="#A1A5B0" stroke-width="0.101865"/>
</svg>
