<svg width="11" height="9" viewBox="0 0 11 9" fill="none" xmlns="http://www.w3.org/2000/svg">
<path fill-rule="evenodd" clip-rule="evenodd" d="M0.130568 7.34124L4.24773 0.46782C4.33443 0.325002 4.45646 0.206929 4.60206 0.124988C4.74766 0.0430461 4.91191 0 5.07898 0C5.24606 0 5.41031 0.0430461 5.55591 0.124988C5.70151 0.206929 5.82354 0.325002 5.91023 0.46782L10.0274 7.34124C10.1122 7.48826 10.1571 7.65492 10.1575 7.82466C10.158 7.9944 10.114 8.1613 10.0299 8.30876C9.94589 8.45623 9.8247 8.57912 9.67842 8.66523C9.53215 8.75133 9.36588 8.79765 9.19615 8.79957H0.961818C0.792021 8.79782 0.625647 8.75161 0.479268 8.66555C0.332889 8.57948 0.211615 8.45657 0.127527 8.30904C0.0434384 8.16152 -0.000528799 7.99454 4.79963e-06 7.82474C0.000538398 7.65493 0.0455541 7.48823 0.130568 7.34124ZM5.07898 2.67457C5.23369 2.67457 5.38207 2.73603 5.49146 2.84542C5.60086 2.95482 5.66232 3.10319 5.66232 3.2579V5.0079C5.66232 5.16261 5.60086 5.31099 5.49146 5.42038C5.38207 5.52978 5.23369 5.59124 5.07898 5.59124C4.92427 5.59124 4.7759 5.52978 4.66651 5.42038C4.55711 5.31099 4.49565 5.16261 4.49565 5.0079V3.2579C4.49565 3.10319 4.55711 2.95482 4.66651 2.84542C4.7759 2.73603 4.92427 2.67457 5.07898 2.67457ZM4.49565 6.7579C4.49565 6.60319 4.55711 6.45482 4.66651 6.34543C4.7759 6.23603 4.92427 6.17457 5.07898 6.17457H5.08365C5.23836 6.17457 5.38673 6.23603 5.49613 6.34543C5.60553 6.45482 5.66698 6.60319 5.66698 6.7579C5.66698 6.91261 5.60553 7.06099 5.49613 7.17038C5.38673 7.27978 5.23836 7.34124 5.08365 7.34124H5.07898C4.92427 7.34124 4.7759 7.27978 4.66651 7.17038C4.55711 7.06099 4.49565 6.91261 4.49565 6.7579Z" fill="#FF0000"/>
</svg>
