<svg width="71" height="63" viewBox="0 0 71 63" fill="none" xmlns="http://www.w3.org/2000/svg">
<path d="M56.5099 9.30045C57.6577 6.39074 56.6043 3.24485 54.1481 2.27653C51.6918 1.3082 48.7727 2.88114 47.6201 5.79085C46.4723 8.70055 47.5304 11.8464 49.9819 12.8195C52.4382 13.7878 55.362 12.2149 56.5099 9.30045Z" fill="url(#paint0_radial_2_142)"/>
<path d="M55.1117 7.04736C55.0361 7.42997 55.3715 7.6378 55.4376 7.66615C55.6265 6.934 56.4579 5.72004 55.2439 3.83062C55.0078 3.97233 54.7196 4.2463 54.6299 4.39273C54.9322 4.84146 55.1778 5.61613 55.1117 7.04736ZM54.6299 4.39273C54.7196 4.2463 55.0078 3.97233 55.2439 3.83062C55.055 3.54249 54.1197 2.8434 53.7277 2.73948C53.6332 2.80561 53.5529 2.98511 53.7088 3.21656C53.9544 3.63696 54.1481 3.67475 54.6299 4.39273ZM55.4376 7.66615C55.4376 7.66615 55.4376 7.66142 55.4423 7.66142C55.4943 7.64725 55.8202 7.62836 56.0186 7.3355C56.4626 6.40023 56.5004 4.74699 55.9194 3.76449C55.8958 3.75977 55.6927 3.69364 55.2959 3.807C55.2912 3.807 55.2534 3.8259 55.2439 3.83062C56.4579 5.72004 55.6265 6.934 55.4376 7.66615ZM55.2439 3.83062C55.2534 3.8259 55.2912 3.807 55.2959 3.807C55.6927 3.69364 55.8958 3.75977 55.9194 3.76449C55.5462 3.12681 54.781 2.71587 54.2992 2.62139C53.841 2.53165 53.7985 2.69225 53.7277 2.73948C54.1197 2.8434 55.055 3.54249 55.2439 3.83062Z" fill="url(#paint1_linear_2_142)"/>
<path d="M64.4644 59.2003C63.8361 60.1261 64.4974 61.0519 64.6391 61.1983C65.9617 59.4695 68.8242 56.2811 68.2904 51.0805C67.5063 51.1844 66.5663 51.3119 66.1648 51.6001C66.3018 53.1588 66.2451 55.4687 64.4644 59.2003ZM66.1648 51.6001C66.5663 51.3119 67.5063 51.1844 68.2904 51.0805C67.9551 47.8543 65.0123 43.4094 64.0912 42.7009C63.7653 42.767 63.3496 43.1496 63.5055 43.9479C65.0454 46.9332 65.9098 48.7423 66.1648 51.6001ZM64.6391 61.1983C64.6439 61.203 64.6439 61.1983 64.6486 61.1983C64.8139 61.2125 65.6972 61.5337 66.5474 60.9716C68.777 58.983 70.7892 54.6326 70.3027 51.3733C70.2413 51.3355 69.6697 51.1324 68.4605 51.0663C68.4416 51.0616 68.3282 51.0757 68.2904 51.0805C68.8242 56.2811 65.9617 59.4695 64.6391 61.1983ZM68.2904 51.0805C68.3282 51.0757 68.4416 51.0616 68.4605 51.0663C69.6697 51.1324 70.2413 51.3355 70.3027 51.3733C69.7972 47.9865 68.3093 45.0532 65.7397 43.0221C64.6344 42.2758 64.3321 42.6537 64.0912 42.7009C65.0123 43.4094 67.9551 47.8543 68.2904 51.0805Z" fill="url(#paint2_linear_2_142)"/>
<path d="M9.2318 37.3772C9.05231 38.4872 7.93754 38.7092 7.73915 38.7186C7.95171 36.5553 8.04147 32.2663 11.9856 28.837C12.4863 29.4463 13.0862 30.1832 13.1807 30.6744C12.0187 31.7136 10.4788 33.4424 9.2318 37.3772ZM13.1807 30.6744C13.0862 30.1832 12.4863 29.4463 11.9856 28.837C14.4324 26.7114 19.6189 25.4785 20.7809 25.5919C20.9698 25.8611 21.0123 26.4232 20.3558 26.9003C17.191 28.0245 15.3205 28.7567 13.1807 30.6744ZM7.73915 38.7186C7.73443 38.7186 7.73443 38.7139 7.72971 38.7139C7.59745 38.61 6.73304 38.2416 6.50159 37.2496C6.23234 34.2738 7.73443 29.725 10.3135 27.6797C10.3843 27.6939 10.9417 27.9301 11.8723 28.7094C11.8864 28.7236 11.962 28.8086 11.9856 28.837C8.04147 32.2663 7.95171 36.5553 7.73915 38.7186ZM11.9856 28.837C11.962 28.8086 11.8864 28.7236 11.8723 28.7094C10.9417 27.9301 10.3843 27.6939 10.3135 27.6797C12.9965 25.5494 16.0904 24.4252 19.3544 24.6991C20.6722 24.907 20.6345 25.3888 20.7809 25.5919C19.6189 25.4785 14.4324 26.7114 11.9856 28.837Z" fill="url(#paint3_linear_2_142)"/>
<path d="M3.82323 39.0588C3.64846 40.1641 2.79823 40.1594 2.59984 40.1688C2.42034 36.4939 1.91492 29.8526 6.96912 25.2944C7.46982 25.899 8.0697 26.6406 8.16417 27.1271C5.34894 29.8243 4.17278 34.6092 3.82323 39.0588ZM8.16417 27.1271C8.0697 26.6406 7.46982 25.899 6.96912 25.2944C11.6643 21.0574 19.3212 21.1329 20.4029 21.5722C20.5115 21.884 19.9494 22.4036 19.4346 22.4461C14.0686 22.8901 10.2378 25.1432 8.16417 27.1271ZM2.59984 40.1688C2.59512 40.1688 2.59511 40.1641 2.59038 40.1641C2.45812 40.0649 1.56065 39.9138 1.3292 38.9266C0.228609 33.8487 1.03634 28.2088 5.29698 24.1324C5.36783 24.1466 5.92521 24.3875 6.85575 25.1621C6.86992 25.1763 6.94551 25.2613 6.96912 25.2944C1.91492 29.8526 2.42034 36.4939 2.59984 40.1688ZM6.96912 25.2944C6.94551 25.2613 6.86992 25.1763 6.85575 25.1621C5.92521 24.3875 5.36783 24.1466 5.29698 24.1324C9.27421 20.3299 15.2731 19.6923 18.8063 20.4669C20.2612 20.7928 20.3226 21.336 20.4029 21.5722C19.3212 21.1329 11.6643 21.0574 6.96912 25.2944Z" fill="url(#paint4_linear_2_142)"/>
<path d="M10.1057 42.7149C11.9809 45.7711 15.2354 48.3407 18.9718 50.4049C9.91199 37.0703 18.0318 35.8705 25.1832 34.1511C18.9859 33.2112 10.3371 33.641 9.63331 40.4524C9.72778 41.1703 9.88838 41.9214 10.1057 42.7149ZM9.63331 40.4524C10.3371 33.641 18.9859 33.2112 25.1832 34.1511C27.3136 33.6363 29.3541 33.0789 30.8326 32.1389C24.3472 30.8966 16.9737 30.0133 10.5024 34.4676C9.56245 36.324 9.35462 38.4071 9.63331 40.4524ZM10.5024 34.4676C16.9737 30.0133 24.3472 30.8966 30.8326 32.1389C31.7584 31.5532 32.3441 30.6982 32.7882 29.7441C27.0538 28.5632 21.5225 27.883 15.4102 29.2623C13.431 30.6463 11.5889 32.309 10.5024 34.4676ZM21.7587 25.5496C20.1007 26.4045 18.5986 27.2264 17.2713 28.0483C16.6478 28.4309 16.0243 28.8324 15.4102 29.2623C21.5225 27.883 27.0538 28.5632 32.7882 29.7441C33.0102 29.267 33.1944 28.7616 33.3692 28.2514C33.6148 27.524 33.8321 26.7871 34.0966 26.1022C37.7148 16.6362 43.5201 5.63506 50.8794 4.86512C50.1378 4.59588 49.3536 4.35498 48.5459 4.12353C48.3097 4.0574 47.3981 3.79288 45.9858 3.42444C40.0483 1.89401 38.5273 3.71258 36.9827 4.25106C26.8648 10.557 30.6248 21.0102 21.7587 25.5496ZM18.9718 50.4049C20.7336 51.3779 22.453 52.2282 24.1393 52.9603C28.9148 55.0387 33.3172 57.0887 39.6751 59.2568C41.0071 59.7103 42.2967 60.0976 43.5578 60.433C59.0605 59.852 59.2164 53.872 55.7493 46.9756C51.6304 43.3243 47.7524 41.1562 43.2083 39.177C38.7918 37.2592 33.0243 35.5965 25.1832 34.1511C18.0318 35.8705 9.91199 37.0703 18.9718 50.4049ZM25.1832 34.1511C33.0243 35.5965 38.7918 37.2592 43.2083 39.177C47.7524 41.1562 51.6304 43.3243 55.7493 46.9756C54.833 45.1523 53.6615 43.2676 52.4523 41.3971C52.2586 41.0995 52.1075 40.7736 51.9847 40.4335C46.3117 36.7633 38.5037 33.6079 30.8326 32.1389C29.3541 33.0789 27.3136 33.6363 25.1832 34.1511ZM30.8326 32.1389C38.5037 33.6079 46.3117 36.7633 51.9847 40.4335C51.6776 39.536 51.6587 38.5866 51.7721 37.656C46.6329 34.3968 39.5192 31.1328 32.7882 29.7441C32.3441 30.6982 31.7584 31.5532 30.8326 32.1389ZM34.0966 26.1022C33.8321 26.7871 33.6148 27.524 33.3692 28.2514C33.1944 28.7616 33.0102 29.267 32.7882 29.7441C39.5192 31.1328 46.6329 34.3968 51.7721 37.656C52.3578 32.7199 54.9605 28.0578 56.2642 23.287C57.7805 17.7651 58.1914 11.7851 55.2675 6.63173C53.8363 5.97044 52.3625 5.40833 50.8794 4.86512C43.5201 5.63506 37.7148 16.6362 34.0966 26.1022ZM43.5578 60.433C47.8516 61.5572 50.6101 62.0201 55.5651 61.7272C56.5004 61.6139 57.3506 61.4485 58.1206 61.236C63.5999 58.0759 61.087 51.7936 55.7493 46.9756C59.2164 53.872 59.0605 59.852 43.5578 60.433ZM52.4523 41.3971C53.6615 43.2676 54.833 45.1523 55.7493 46.9756C61.087 51.7936 63.5999 58.0759 58.1206 61.236C60.7516 60.4991 62.4426 59.1576 63.3448 57.1879C63.4802 56.8919 63.5983 56.5833 63.6991 56.2621C63.0378 49.5924 56.8594 43.5793 51.9847 40.4335C52.1075 40.7736 52.2586 41.0995 52.4523 41.3971ZM51.9847 40.4335C56.8594 43.5793 63.0378 49.5924 63.6991 56.2621C64.3273 54.2357 64.2517 52.0534 63.9305 49.942C60.6807 44.0186 56.4437 40.6224 51.7721 37.656C51.6587 38.5866 51.6776 39.536 51.9847 40.4335ZM56.2642 23.287C54.9605 28.0578 52.3578 32.7199 51.7721 37.656C56.4437 40.6224 60.6807 44.0186 63.9305 49.942C63.8266 49.2382 63.6943 48.5391 63.5479 47.8589C63.137 45.8986 62.5229 43.7258 61.7388 41.3451C59.8966 35.776 66.2451 26.0739 65.5979 18.6815C65.6499 17.4109 65.5224 12.2528 59.24 8.79039C57.4545 7.8079 56.0658 7.00017 55.2675 6.63173C58.1914 11.7851 57.7805 17.7651 56.2642 23.287Z" fill="url(#paint5_linear_2_142)"/>
<path style="mix-blend-mode:multiply" d="M15.0512 42.3749C15.5141 43.0976 16.0337 43.7683 16.5958 44.3965C18.6269 46.6638 21.1115 48.4588 23.6292 50.0365C22.0798 48.4163 19.0615 45.7097 18.0648 44.1698C16.6525 42.8614 15.1079 41.0381 13.8183 39.0022C13.8609 40.0414 14.2907 41.1845 15.0512 42.3749ZM14.064 37.4813C13.875 37.9583 13.7947 38.4685 13.8183 39.0022C15.1079 41.0381 16.6525 42.8614 18.0648 44.1698C17.0918 42.6772 15.9534 41.5152 16.4257 39.3896C16.9312 37.127 18.8206 36.0831 21.3005 35.4123C19.1087 35.606 16.9595 35.5257 14.5883 36.5791C14.3663 36.8577 14.1915 37.1553 14.064 37.4813ZM14.5883 36.5791C16.9595 35.5257 19.1087 35.606 21.3005 35.4123C22.4105 35.11 25.2115 34.5999 26.246 34.3259C23.6055 34.0236 20.8139 33.9008 18.1262 34.5857C16.8745 34.9022 15.4858 35.4407 14.5883 36.5791ZM16.4257 39.3896C15.9534 41.5152 17.0918 42.6772 18.0648 44.1698C24.999 50.6175 46.8643 59.2568 52.5845 57.939C52.8302 57.8823 53.0805 57.8728 53.3214 57.8587C54.1669 57.4099 55.4659 56.7344 56.3161 55.1946C57.2939 53.4327 56.9113 51.4393 56.2358 49.7625C55.584 48.9122 54.9558 48.1707 54.4362 47.7361C45.6976 40.5091 32.4622 36.7397 22.9301 35.4029C22.5427 35.3415 21.9712 35.3557 21.3005 35.4123C18.8206 36.0831 16.9312 37.127 16.4257 39.3896ZM23.6292 50.0365C26.4397 51.8031 29.7367 53.4705 33.3597 54.9017C38.5036 56.9376 43.5059 58.1657 47.7334 58.5861C48.5459 58.6664 49.3725 58.7278 50.2039 58.7561C51.6256 58.4916 52.1783 58.4727 53.3214 57.8587C53.0805 57.8728 52.8302 57.8823 52.5845 57.939C46.8643 59.2568 24.999 50.6175 18.0648 44.1698C19.0615 45.7097 22.0798 48.4163 23.6292 50.0365ZM21.3005 35.4123C21.9712 35.3557 22.5427 35.3415 22.9301 35.4029C32.4622 36.7397 45.6976 40.5091 54.4362 47.7361C54.9558 48.1707 55.584 48.9122 56.2358 49.7625C55.9194 48.9689 53.9024 46.097 53.4253 45.3649C50.0102 42.6819 45.3858 40.0556 40.0529 37.9536C35.1357 36.0075 30.3508 34.7983 26.246 34.3259C25.2115 34.5999 22.4105 35.11 21.3005 35.4123ZM50.2039 58.7561C51.8949 58.8034 53.6095 58.6947 55.2864 58.2696C56.6704 57.9153 58.3047 57.2682 59.1314 55.8275C57.5631 56.9234 55.6407 57.7358 53.3214 57.8587C52.1783 58.4727 51.6256 58.4916 50.2039 58.7561ZM56.3161 55.1946C55.4659 56.7344 54.1669 57.4099 53.3214 57.8587C55.6407 57.7358 57.5631 56.9234 59.1314 55.8275C59.4053 55.3552 59.547 54.8309 59.5848 54.3065C58.7582 53.3146 57.4545 51.3496 56.2358 49.7625C56.9113 51.4393 57.2939 53.4327 56.3161 55.1946ZM56.2358 49.7625C57.4545 51.3496 58.7582 53.3146 59.5848 54.3065C59.6888 52.88 59.0511 51.5574 58.3614 50.4805C57.0577 48.4399 55.2581 46.8055 53.4253 45.3649C53.9024 46.097 55.9194 48.9689 56.2358 49.7625Z" fill="url(#paint6_linear_2_142)"/>
<path opacity="0.56" d="M56.3729 30.6933C55.995 31.827 56.5855 32.4269 57.0389 32.6725C57.7428 30.2729 62.5891 20.3913 60.8603 15.0017C60.1943 15.1859 59.311 15.6724 58.9992 15.97C60.0667 19.3332 59.0039 24.0426 56.3729 30.6933ZM58.9992 15.97C59.311 15.6724 60.1943 15.1859 60.8603 15.0017C60.5911 14.1703 58.7583 11.8605 57.8703 11.3551C57.601 11.4543 57.2893 11.8369 57.516 12.5029C57.8467 13.6933 58.3426 13.8964 58.9992 15.97ZM57.0389 32.6725C57.0437 32.6772 57.0437 32.6725 57.0484 32.6725C57.1948 32.6678 57.8892 33.296 58.5694 31.5719C63.3496 21.95 63.6708 18.4263 62.556 15.2709C62.4994 15.2473 62.0412 14.9544 61.0067 14.9733C60.9878 14.9733 60.8934 14.9922 60.8603 15.0017C62.5891 20.3913 57.7428 30.2729 57.0389 32.6725ZM60.8603 15.0017C60.8934 14.9922 60.9878 14.9733 61.0067 14.9733C62.0412 14.9544 62.4994 15.2473 62.556 15.2709C61.9373 13.5185 60.4588 11.9833 59.344 11.4354C58.2907 10.9205 58.0781 11.2842 57.8703 11.3551C58.7583 11.8605 60.5911 14.1703 60.8603 15.0017Z" fill="url(#paint7_linear_2_142)"/>
<path d="M30.7664 33.9052C29.7792 33.6076 29.7131 32.5637 29.7272 32.3795C31.645 32.833 49.1883 36.8338 57.7426 45.0292C57.3742 45.4968 56.8026 45.7236 56.1744 45.6952C45.4519 36.7063 34.139 35.5018 30.7664 33.9052ZM56.7176 46.1581C56.535 46.0007 56.3539 45.8464 56.1744 45.6952C56.8026 45.7236 57.3742 45.4968 57.7426 45.0292C60.3595 47.5374 61.564 50.8722 61.3986 54.4857C61.0963 54.4621 60.5815 54.0181 60.5342 53.6544C60.2744 52.8467 60.435 49.3749 56.7176 46.1581ZM29.7272 32.3795C29.7272 32.3748 29.732 32.3748 29.7367 32.3748C29.8406 32.2662 29.6375 31.8269 30.568 31.7371C38.8437 33.0975 52.32 38.7705 57.5631 43.0406C58.163 43.9286 58.0733 44.6182 57.7426 45.0292C49.1883 36.8338 31.645 32.833 29.7272 32.3795ZM57.7426 45.0292C58.0733 44.6182 58.163 43.9286 57.5631 43.0406C59.7643 44.8355 61.5687 48.2932 62.3433 51.4013C62.6126 52.4735 62.7543 53.5269 62.7307 54.4999C62.5984 56.1673 61.7529 54.5094 61.3986 54.4857C61.564 50.8722 60.3595 47.5374 57.7426 45.0292Z" fill="url(#paint8_linear_2_142)"/>
<path d="M48.9852 48.0763L49.1978 45.4926L44.3231 45.0911L44.1152 47.5804C43.9405 49.6729 43.1091 51.6851 41.6401 53.1872C40.6293 54.217 39.9963 55.6388 39.9916 57.2306C39.9916 60.0694 42.1125 62.5257 44.923 62.9366C48.2531 63.4279 51.262 61.0047 51.5312 57.6982C51.6446 56.352 51.2856 55.0719 50.5912 54.028C49.4151 52.2661 48.8105 50.1878 48.9852 48.0763Z" fill="url(#paint9_radial_2_142)"/>
<path style="mix-blend-mode:overlay" opacity="0.74" d="M47.8517 60.792C47.4691 61.3116 47.6911 61.8879 47.7667 61.9729C48.461 61.5431 50.7331 59.8001 50.2276 56.1063C49.7742 56.1535 49.2735 56.3377 49.0326 56.4983C49.2026 57.1738 48.9901 59.0774 47.8517 60.792ZM49.0326 56.4983C49.2735 56.3377 49.7742 56.1535 50.2276 56.1063C50.1521 55.5395 49.1034 53.6122 48.5838 53.1824C48.3996 53.2155 48.2107 53.6028 48.2815 54.061C48.3571 54.8687 48.6925 55.1049 49.0326 56.4983ZM47.7667 61.9729C47.7714 61.9776 47.7714 61.9729 47.7761 61.9729C47.8706 61.9871 48.3713 62.1902 48.872 61.8832C50.5205 60.7779 51.6164 58.3405 51.3896 56.4558C51.3566 56.4322 51.0259 56.2055 50.3268 56.1063C50.3127 56.1063 50.2512 56.1063 50.2276 56.1063C50.7331 59.8001 48.461 61.5431 47.7667 61.9729ZM50.2276 56.1063C50.2512 56.1063 50.3127 56.1063 50.3268 56.1063C51.0259 56.2055 51.3566 56.4322 51.3896 56.4558C51.196 54.8215 50.3504 54.0232 49.6892 53.5414C49.0656 53.0879 48.7256 53.1588 48.5838 53.1824C49.1034 53.6122 50.1521 55.5395 50.2276 56.1063Z" fill="url(#paint10_linear_2_142)"/>
<path d="M18.5608 11.1665C18.5608 11.5349 18.5781 11.9002 18.6128 12.2623C20.4077 18.5588 29.9351 22.4133 36.1041 16.6505C36.1481 16.6096 36.197 16.5655 36.2505 16.5183C36.3875 16.4049 36.6 16.249 36.6662 16.1876C36.7795 16.0081 36.9071 15.8759 37.0157 15.668C38.3005 13.1929 39.0988 2.42318 31.8481 0.198388C31.1632 0.0661289 30.45 0 29.7273 0C26.6428 0 23.8512 1.24702 21.8295 3.2687C19.8078 5.29038 18.5608 8.082 18.5608 11.1665ZM20.0582 16.7544C25.2777 22.2574 29.3541 21.9692 34.2666 19.9995C34.3516 19.9649 34.4366 19.9287 34.5217 19.8909C35.5797 18.9509 36.2647 16.8347 36.6662 16.1876C36.6 16.249 36.3875 16.4049 36.2505 16.5183C36.197 16.5655 36.1481 16.6096 36.1041 16.6505C29.9351 22.4133 20.4077 18.5588 18.6128 12.2623C18.7686 13.84 19.2599 15.3799 20.0582 16.7544ZM21.8295 19.0595C23.8512 21.0812 26.6428 22.333 29.7273 22.333C29.828 22.333 29.9288 22.3314 30.0296 22.3282C32.1174 21.7661 33.1943 21.067 34.5217 19.8909C34.4366 19.9287 34.3516 19.9649 34.2666 19.9995C29.3541 21.9692 25.2777 22.2574 20.0582 16.7544C20.5494 17.6 21.1446 18.3746 21.8295 19.0595ZM30.0296 22.3282C32.089 22.2715 34.1249 21.6339 35.849 20.5049C36.463 19.7775 37.2708 18.6722 37.9888 17.548C37.0346 18.3416 35.8301 19.3052 34.5217 19.8909C33.1943 21.067 32.1174 21.7661 30.0296 22.3282ZM34.5217 19.8909C35.8301 19.3052 37.0346 18.3416 37.9888 17.548C38.5225 16.7119 39.0893 15.1862 39.4861 14.284C38.7351 15.087 37.4928 15.4791 36.6662 16.1876C36.2647 16.8347 35.5797 18.9509 34.5217 19.8909ZM37.0157 15.668C36.9071 15.8759 36.7795 16.0081 36.6662 16.1876C37.4928 15.4791 38.7351 15.087 39.4861 14.284C41.2291 10.2926 38.7256 3.9111 35.5845 1.65797C34.4414 0.949433 33.1707 0.45346 31.8481 0.198388C39.0988 2.42318 38.3005 13.1929 37.0157 15.668ZM35.849 20.5049C36.4867 20.0845 37.0818 19.598 37.6203 19.0595C38.5225 18.1621 39.2688 17.104 39.8168 15.9514C39.3586 16.4332 38.48 17.1418 37.9888 17.548C37.2708 18.6722 36.463 19.7775 35.849 20.5049ZM37.9888 17.548C38.48 17.1418 39.3586 16.4332 39.8168 15.9514C40.36 14.8083 40.7048 13.5755 40.8323 12.3143C40.6151 12.9378 40.0482 13.6794 39.4861 14.284C39.0893 15.1862 38.5225 16.7119 37.9888 17.548ZM39.4861 14.284C40.0482 13.6794 40.6151 12.9378 40.8323 12.3143C40.8733 11.9364 40.8937 11.5538 40.8937 11.1665C40.8937 8.082 39.642 5.29038 37.6203 3.2687C37.0063 2.65464 36.3213 2.11143 35.5845 1.65797C38.7256 3.9111 41.2291 10.2926 39.4861 14.284Z" fill="url(#paint11_linear_2_142)"/>
<path d="M33.3503 14.813C33.3503 13.0842 31.9475 11.6813 30.2186 11.6813C28.4898 11.6813 27.0869 13.0842 27.0869 14.813C27.0869 16.5419 28.4898 17.9448 30.2186 17.9448C31.9475 17.9448 33.3503 16.5419 33.3503 14.813Z" fill="url(#paint12_radial_2_142)"/>
<path d="M31.2152 15.1343C31.2152 14.3077 30.5492 13.6417 29.7273 13.6417C28.9054 13.6417 28.2346 14.3077 28.2346 15.1343C28.2346 15.9562 28.9054 16.6222 29.7273 16.6222C30.5492 16.6222 31.2152 15.9562 31.2152 15.1343Z" fill="white"/>
<path d="M29.7273 4.79913C28.9054 4.79913 28.2346 5.46515 28.2346 6.28705V10.8878C28.2346 11.7097 28.9054 12.3804 29.7273 12.3804C30.5492 12.3804 31.2152 11.7097 31.2152 10.8878V6.28705C31.2152 5.46515 30.5492 4.79913 29.7273 4.79913Z" fill="white"/>
<defs>
<radialGradient id="paint0_radial_2_142" cx="0" cy="0" r="1" gradientUnits="userSpaceOnUse" gradientTransform="translate(54.843 3.44324) rotate(21.5559) scale(6.11513 6.11514)">
<stop stop-color="#98FFFF"/>
<stop offset="0.626" stop-color="#32C1FF"/>
<stop offset="1" stop-color="#1F7CC9"/>
</radialGradient>
<linearGradient id="paint1_linear_2_142" x1="55.1123" y1="7.04953" x2="55.1595" y2="7.04953" gradientUnits="userSpaceOnUse">
<stop stop-color="white"/>
<stop offset="1" stop-color="white"/>
</linearGradient>
<linearGradient id="paint2_linear_2_142" x1="64.4645" y1="59.1983" x2="68.2898" y2="51.0796" gradientUnits="userSpaceOnUse">
<stop stop-color="white"/>
<stop offset="1" stop-color="#82E6F6"/>
</linearGradient>
<linearGradient id="paint3_linear_2_142" x1="9.23109" y1="37.3785" x2="11.9871" y2="28.8375" gradientUnits="userSpaceOnUse">
<stop stop-color="white"/>
<stop offset="1" stop-color="#82E6F6"/>
</linearGradient>
<linearGradient id="paint4_linear_2_142" x1="3.82342" y1="39.0577" x2="6.9695" y2="25.2921" gradientUnits="userSpaceOnUse">
<stop stop-color="white"/>
<stop offset="1" stop-color="#9CF1F6"/>
</linearGradient>
<linearGradient id="paint5_linear_2_142" x1="10.1045" y1="42.7144" x2="65.5963" y2="18.6795" gradientUnits="userSpaceOnUse">
<stop stop-color="#0063D9"/>
<stop offset="1" stop-color="white"/>
</linearGradient>
<linearGradient id="paint6_linear_2_142" x1="15.0511" y1="42.3745" x2="21.3012" y2="35.4127" gradientUnits="userSpaceOnUse">
<stop stop-color="white"/>
<stop offset="1" stop-color="#316EB5"/>
</linearGradient>
<linearGradient id="paint7_linear_2_142" x1="56.375" y1="30.6933" x2="56.4222" y2="30.6933" gradientUnits="userSpaceOnUse">
<stop stop-color="white"/>
<stop offset="1" stop-color="white"/>
</linearGradient>
<linearGradient id="paint8_linear_2_142" x1="30.7641" y1="33.9034" x2="30.8114" y2="33.9034" gradientUnits="userSpaceOnUse">
<stop stop-color="white"/>
<stop offset="1" stop-color="white"/>
</linearGradient>
<radialGradient id="paint9_radial_2_142" cx="0" cy="0" r="1" gradientUnits="userSpaceOnUse" gradientTransform="translate(49.2929 63.5681) rotate(4.72212) scale(17.5812 17.5812)">
<stop stop-color="#98EFFF"/>
<stop offset="0.244" stop-color="#52C1F2"/>
<stop offset="0.716" stop-color="#005EC2"/>
<stop offset="1" stop-color="#0069C2"/>
</radialGradient>
<linearGradient id="paint10_linear_2_142" x1="47.8516" y1="60.7899" x2="47.8988" y2="60.7899" gradientUnits="userSpaceOnUse">
<stop stop-color="white"/>
<stop offset="1" stop-color="white"/>
</linearGradient>
<linearGradient id="paint11_linear_2_142" x1="21.8303" y1="3.26926" x2="37.9899" y2="17.5466" gradientUnits="userSpaceOnUse">
<stop stop-color="#FB9781"/>
<stop offset="1" stop-color="#BF203E"/>
</linearGradient>
<radialGradient id="paint12_radial_2_142" cx="0" cy="0" r="1" gradientUnits="userSpaceOnUse" gradientTransform="translate(30.2175 14.8122) scale(3.13115 3.13115)">
<stop stop-color="#BB4339"/>
<stop offset="1" stop-color="#FD5047"/>
</radialGradient>
</defs>
</svg>
