<svg width="20" height="20" viewBox="0 0 20 20" fill="none" xmlns="http://www.w3.org/2000/svg">
<path d="M4 4C4 3.46957 4.21071 2.96086 4.58579 2.58579C4.96086 2.21071 5.46957 2 6 2H14C14.5304 2 15.0391 2.21071 15.4142 2.58579C15.7893 2.96086 16 3.46957 16 4V13.883L15 14.893V4C15 3.73478 14.8946 3.48043 14.7071 3.29289C14.5196 3.10536 14.2652 3 14 3H6C5.73478 3 5.48043 3.10536 5.29289 3.29289C5.10536 3.48043 5 3.73478 5 4V16C5 16.2652 5.10536 16.5196 5.29289 16.7071C5.48043 16.8946 5.73478 17 6 17H10.085C10.156 17.2 10.27 17.389 10.429 17.55L10.87 18H6C5.46957 18 4.96086 17.7893 4.58579 17.4142C4.21071 17.0391 4 16.5304 4 16V4ZM8 5.5C8 5.76522 7.89464 6.01957 7.70711 6.20711C7.51957 6.39464 7.26522 6.5 7 6.5C6.73478 6.5 6.48043 6.39464 6.29289 6.20711C6.10536 6.01957 6 5.76522 6 5.5C6 5.23478 6.10536 4.98043 6.29289 4.79289C6.48043 4.60536 6.73478 4.5 7 4.5C7.26522 4.5 7.51957 4.60536 7.70711 4.79289C7.89464 4.98043 8 5.23478 8 5.5ZM9.5 5C9.36739 5 9.24021 5.05268 9.14645 5.14645C9.05268 5.24021 9 5.36739 9 5.5C9 5.63261 9.05268 5.75979 9.14645 5.85355C9.24021 5.94732 9.36739 6 9.5 6H13.5C13.6326 6 13.7598 5.94732 13.8536 5.85355C13.9473 5.75979 14 5.63261 14 5.5C14 5.36739 13.9473 5.24021 13.8536 5.14645C13.7598 5.05268 13.6326 5 13.5 5H9.5ZM9.5 9C9.36739 9 9.24021 9.05268 9.14645 9.14645C9.05268 9.24021 9 9.36739 9 9.5C9 9.63261 9.05268 9.75979 9.14645 9.85355C9.24021 9.94732 9.36739 10 9.5 10H13.5C13.6326 10 13.7598 9.94732 13.8536 9.85355C13.9473 9.75979 14 9.63261 14 9.5C14 9.36739 13.9473 9.24021 13.8536 9.14645C13.7598 9.05268 13.6326 9 13.5 9H9.5ZM9 13.5C9 13.3674 9.05268 13.2402 9.14645 13.1464C9.24021 13.0527 9.36739 13 9.5 13H13.5C13.6326 13 13.7598 13.0527 13.8536 13.1464C13.9473 13.2402 14 13.3674 14 13.5C14 13.6326 13.9473 13.7598 13.8536 13.8536C13.7598 13.9473 13.6326 14 13.5 14H9.5C9.36739 14 9.24021 13.9473 9.14645 13.8536C9.05268 13.7598 9 13.6326 9 13.5ZM7 10.5C7.26522 10.5 7.51957 10.3946 7.70711 10.2071C7.89464 10.0196 8 9.76522 8 9.5C8 9.23478 7.89464 8.98043 7.70711 8.79289C7.51957 8.60536 7.26522 8.5 7 8.5C6.73478 8.5 6.48043 8.60536 6.29289 8.79289C6.10536 8.98043 6 9.23478 6 9.5C6 9.76522 6.10536 10.0196 6.29289 10.2071C6.48043 10.3946 6.73478 10.5 7 10.5ZM7 14.5C7.26522 14.5 7.51957 14.3946 7.70711 14.2071C7.89464 14.0196 8 13.7652 8 13.5C8 13.2348 7.89464 12.9804 7.70711 12.7929C7.51957 12.6054 7.26522 12.5 7 12.5C6.73478 12.5 6.48043 12.6054 6.29289 12.7929C6.10536 12.9804 6 13.2348 6 13.5C6 13.7652 6.10536 14.0196 6.29289 14.2071C6.48043 14.3946 6.73478 14.5 7 14.5ZM17.855 14.852C17.9458 14.7573 17.9957 14.6308 17.994 14.4996C17.9924 14.3685 17.9392 14.2433 17.8461 14.1509C17.753 14.0586 17.6273 14.0065 17.4962 14.006C17.365 14.0054 17.2389 14.0564 17.145 14.148L13.502 17.828L11.857 16.15C11.8113 16.102 11.7565 16.0636 11.6958 16.037C11.6351 16.0104 11.5698 15.9961 11.5035 15.995C11.4373 15.9938 11.3715 16.0059 11.3099 16.0304C11.2483 16.055 11.1923 16.0915 11.145 16.1379C11.0976 16.1843 11.06 16.2396 11.0343 16.3006C11.0085 16.3617 10.9952 16.4273 10.995 16.4935C10.9948 16.5598 11.0078 16.6254 11.0332 16.6866C11.0586 16.7478 11.0959 16.8034 11.143 16.85L13.072 18.818C13.1277 18.8748 13.1941 18.92 13.2675 18.9509C13.3408 18.9818 13.4195 18.9978 13.4991 18.998C13.5786 18.9982 13.6575 18.9825 13.7309 18.952C13.8044 18.9214 13.871 18.8766 13.927 18.82L17.855 14.852Z" fill="#595E6C"/>
</svg>
