<svg width="20" height="20" viewBox="0 0 20 20" fill="none" xmlns="http://www.w3.org/2000/svg">
<path d="M10.3541 16.541L15.9442 13.648C16.1614 13.5353 16.2701 13.4796 16.3491 13.3964C16.4192 13.3234 16.4722 13.2358 16.5045 13.14C16.5416 13.0306 16.5416 12.909 16.5416 12.6642V7.28245M10.3541 16.541L4.76406 13.648C4.54681 13.5353 4.43819 13.4796 4.35913 13.3964C4.2891 13.3234 4.23604 13.2358 4.20375 13.14C4.16663 13.0306 4.16663 12.9083 4.16663 12.6628V7.28245M10.3541 16.541V10.3102M16.5416 7.28245L10.3541 10.3102M16.5416 7.28245L13.4479 5.68058M4.16663 7.28245L9.85156 4.34064C10.0358 4.24577 10.1273 4.19764 10.2242 4.17908C10.31 4.16256 10.3982 4.16256 10.4841 4.17908C10.5803 4.19764 10.6724 4.24577 10.856 4.34064L13.4479 5.68058M4.16663 7.28245L7.26038 8.79702M10.3541 10.3102L7.26038 8.79633M13.4479 5.68058L7.26038 8.79633M7.26038 8.79633V10.3102" stroke="#595E6C" stroke-width="1.03125" stroke-linecap="round" stroke-linejoin="round"/>
</svg>
