<svg width="16" height="20" viewBox="0 0 16 20" fill="none" xmlns="http://www.w3.org/2000/svg">
<path d="M13.5 0.833374C13.9862 0.833374 14.4525 1.02653 14.7963 1.37034C15.1401 1.71416 15.3333 2.18048 15.3333 2.66671V17.3334C15.3333 17.8196 15.1401 18.2859 14.7963 18.6297C14.4525 18.9736 13.9862 19.1667 13.5 19.1667H2.49996C2.01373 19.1667 1.54741 18.9736 1.2036 18.6297C0.85978 18.2859 0.666626 17.8196 0.666626 17.3334V2.66671C0.666626 2.18048 0.85978 1.71416 1.2036 1.37034C1.54741 1.02653 2.01373 0.833374 2.49996 0.833374H13.5ZM13.5 2.66671H8.91663V10L6.62496 7.93754L4.33329 10V2.66671H2.49996V17.3334H13.5V2.66671Z" fill="#727272"/>
</svg>
