<svg width="20" height="20" viewBox="0 0 20 20" fill="none" xmlns="http://www.w3.org/2000/svg">
<path d="M13.2356 9.92519H15.4688C15.5735 9.92525 15.6766 9.95207 15.768 10.0031C15.8595 10.0542 15.9364 10.1277 15.9915 10.2169C16.0466 10.306 16.078 10.4077 16.0827 10.5124C16.0874 10.617 16.0653 10.7212 16.0184 10.8149L14.7678 13.3167C14.7204 13.4115 14.6493 13.4924 14.5614 13.5516C14.4735 13.6108 14.3717 13.6463 14.266 13.6546C14.1604 13.6629 14.0543 13.6437 13.9583 13.599C13.8622 13.5542 13.7793 13.4853 13.7177 13.3991L12.4117 11.573M4.16663 14.2291H6.47846C6.70763 14.2307 6.93269 14.1682 7.12824 14.0487C7.32379 13.9292 7.48206 13.7575 7.58518 13.5528L8.47057 11.7697M4.16663 15.4588V12.9994M7.24087 8.08065H7.24702M13.4545 8.11323C13.6003 8.18618 13.7111 8.314 13.7626 8.46861C13.8141 8.62321 13.8022 8.79195 13.7294 8.93775L11.8196 12.7566C11.7835 12.8288 11.7335 12.8932 11.6725 12.9461C11.6115 12.999 11.5406 13.0394 11.464 13.0649C11.3874 13.0904 11.3065 13.1006 11.2259 13.0949C11.1454 13.0891 11.0667 13.0676 10.9945 13.0314L5.15653 10.1096C4.73249 9.89606 4.41032 9.52319 4.26053 9.07265C4.11073 8.6221 4.1455 8.13056 4.35723 7.70559L5.20572 5.99016C5.31147 5.7794 5.45771 5.59154 5.63608 5.43731C5.81444 5.28308 6.02144 5.16549 6.24526 5.09126C6.46907 5.01704 6.70532 4.98763 6.9405 5.00472C7.17568 5.02181 7.40519 5.08506 7.61593 5.19086L13.4545 8.11323Z" stroke="#595E6C" stroke-width="1.06574" stroke-linecap="round" stroke-linejoin="round"/>
</svg>
