<svg width="14" height="14" viewBox="0 0 14 14" fill="none" xmlns="http://www.w3.org/2000/svg">
<g clip-path="url(#clip0_4203_18914)">
<path fill-rule="evenodd" clip-rule="evenodd" d="M2.61335 0.933334H2.56668C2.35295 0.933334 2.16908 0.933334 2.00668 0.971601C1.75528 1.03167 1.52541 1.16018 1.34255 1.34287C1.15969 1.52556 1.03098 1.75532 0.970683 2.00667C0.93335 2.16907 0.93335 2.352 0.93335 2.56667V4.9C0.93335 5.11373 0.93335 5.2976 0.971616 5.46C1.03169 5.71141 1.16019 5.94127 1.34289 6.12413C1.52558 6.30699 1.75533 6.4357 2.00668 6.496C2.16908 6.53333 2.35202 6.53333 2.56668 6.53333H4.90002C5.11375 6.53333 5.29762 6.53333 5.46002 6.49507C5.71142 6.43499 5.94129 6.30649 6.12415 6.1238C6.30701 5.9411 6.43572 5.71135 6.49602 5.46C6.53335 5.2976 6.53335 5.11467 6.53335 4.9V2.56667C6.53335 2.35293 6.53335 2.16907 6.49508 2.00667C6.43501 1.75526 6.30651 1.52539 6.12381 1.34254C5.94112 1.15968 5.71137 1.03097 5.46002 0.970668C5.29762 0.933334 5.11468 0.933334 4.90002 0.933334H2.61335ZM2.22415 1.87973C2.26428 1.8704 2.32682 1.86667 2.61335 1.86667H4.85335C5.14082 1.86667 5.20242 1.86947 5.24255 1.87973C5.32639 1.89978 5.40304 1.94266 5.464 2.00362C5.52495 2.06458 5.56783 2.14123 5.58788 2.22507C5.59722 2.26427 5.60002 2.32587 5.60002 2.61333V4.85333C5.60002 5.1408 5.59722 5.2024 5.58695 5.24253C5.5669 5.32638 5.52402 5.40302 5.46306 5.46398C5.40211 5.52494 5.32546 5.56782 5.24162 5.58787C5.20335 5.59627 5.14175 5.6 4.85335 5.6H2.61335C2.32588 5.6 2.26428 5.5972 2.22415 5.58693C2.14031 5.56689 2.06366 5.524 2.0027 5.46305C1.94175 5.40209 1.89887 5.32544 1.87882 5.2416C1.87042 5.20333 1.86668 5.14173 1.86668 4.85333V2.61333C1.86668 2.32587 1.86948 2.26427 1.87975 2.22413C1.8998 2.14029 1.94268 2.06364 2.00364 2.00269C2.06459 1.94173 2.14124 1.89885 2.22508 1.8788M9.14668 0.933334H9.10002C8.88628 0.933334 8.70242 0.933334 8.54002 0.971601C8.28861 1.03167 8.05874 1.16018 7.87589 1.34287C7.69303 1.52556 7.56432 1.75532 7.50402 2.00667C7.46668 2.16907 7.46668 2.352 7.46668 2.56667V4.9C7.46668 5.11373 7.46668 5.2976 7.50495 5.46C7.56502 5.71141 7.69353 5.94127 7.87622 6.12413C8.05891 6.30699 8.28866 6.4357 8.54002 6.496C8.70242 6.53333 8.88535 6.53333 9.10002 6.53333H11.4333C11.6471 6.53333 11.831 6.53333 11.9934 6.49507C12.2448 6.43499 12.4746 6.30649 12.6575 6.1238C12.8403 5.9411 12.969 5.71135 13.0293 5.46C13.0667 5.2976 13.0667 5.11467 13.0667 4.9V2.56667C13.0667 2.35293 13.0667 2.16907 13.0284 2.00667C12.9683 1.75526 12.8398 1.52539 12.6571 1.34254C12.4745 1.15968 12.2447 1.03097 11.9934 0.970668C11.831 0.933334 11.648 0.933334 11.4333 0.933334H9.14668ZM8.75748 1.87973C8.79762 1.8704 8.86015 1.86667 9.14668 1.86667H11.3867C11.6741 1.86667 11.7357 1.86947 11.7759 1.87973C11.8597 1.89978 11.9364 1.94266 11.9973 2.00362C12.0583 2.06458 12.1012 2.14123 12.1212 2.22507C12.1306 2.26427 12.1333 2.32587 12.1333 2.61333V4.85333C12.1333 5.1408 12.1296 5.2024 12.1203 5.24253C12.1002 5.32638 12.0574 5.40302 11.9964 5.46398C11.9354 5.52494 11.8588 5.56782 11.7749 5.58787C11.7357 5.5972 11.6741 5.6 11.3867 5.6H9.14668C8.85922 5.6 8.79762 5.5972 8.75748 5.58693C8.67364 5.56689 8.59699 5.524 8.53604 5.46305C8.47508 5.40209 8.4322 5.32544 8.41215 5.2416C8.40375 5.20333 8.40002 5.14173 8.40002 4.85333V2.61333C8.40002 2.32587 8.40282 2.26427 8.41308 2.22413C8.43313 2.14029 8.47601 2.06364 8.53697 2.00269C8.59793 1.94173 8.67457 1.89885 8.75842 1.8788M2.56668 7.46667H4.90002C5.11375 7.46667 5.29762 7.46667 5.46002 7.50493C5.71142 7.56501 5.94129 7.69351 6.12415 7.8762C6.30701 8.0589 6.43572 8.28865 6.49602 8.54C6.53335 8.7024 6.53335 8.88533 6.53335 9.1V11.4333C6.53335 11.6471 6.53335 11.8309 6.49508 11.9933C6.43501 12.2447 6.30651 12.4746 6.12381 12.6575C5.94112 12.8403 5.71137 12.969 5.46002 13.0293C5.29762 13.0667 5.11468 13.0667 4.90002 13.0667H2.56668C2.35295 13.0667 2.16908 13.0667 2.00668 13.0284C1.75528 12.9683 1.52541 12.8398 1.34255 12.6571C1.15969 12.4744 1.03098 12.2447 0.970683 11.9933C0.93335 11.8309 0.93335 11.648 0.93335 11.4333V9.1C0.93335 8.88627 0.93335 8.7024 0.971616 8.54C1.03169 8.28859 1.16019 8.05873 1.34289 7.87587C1.52558 7.69301 1.75533 7.5643 2.00668 7.504C2.16908 7.46667 2.35202 7.46667 2.56668 7.46667ZM2.61335 8.4C2.32588 8.4 2.26428 8.4028 2.22415 8.41307C2.14031 8.43312 2.06366 8.476 2.0027 8.53695C1.94175 8.59791 1.89887 8.67456 1.87882 8.7584C1.87042 8.79667 1.86668 8.85827 1.86668 9.14667V11.3867C1.86668 11.6741 1.86948 11.7357 1.87975 11.7759C1.8998 11.8597 1.94268 11.9364 2.00364 11.9973C2.06459 12.0583 2.14124 12.1012 2.22508 12.1212C2.26428 12.1305 2.32588 12.1333 2.61335 12.1333H4.85335C5.14082 12.1333 5.20242 12.1296 5.24255 12.1203C5.32639 12.1002 5.40304 12.0573 5.464 11.9964C5.52495 11.9354 5.56783 11.8588 5.58788 11.7749C5.59722 11.7357 5.60002 11.6741 5.60002 11.3867V9.14667C5.60002 8.8592 5.59722 8.7976 5.58695 8.75747C5.5669 8.67363 5.52402 8.59698 5.46306 8.53602C5.40211 8.47506 5.32546 8.43218 5.24162 8.41213C5.20335 8.40373 5.14175 8.4 4.85335 8.4H2.61335ZM9.14668 7.46667H9.10002C8.88628 7.46667 8.70242 7.46667 8.54002 7.50493C8.28861 7.56501 8.05874 7.69351 7.87589 7.8762C7.69303 8.0589 7.56432 8.28865 7.50402 8.54C7.46668 8.7024 7.46668 8.88533 7.46668 9.1V11.4333C7.46668 11.6471 7.46668 11.8309 7.50495 11.9933C7.56502 12.2447 7.69353 12.4746 7.87622 12.6575C8.05891 12.8403 8.28866 12.969 8.54002 13.0293C8.70242 13.0676 8.88628 13.0676 9.10002 13.0676H11.4333C11.6471 13.0676 11.831 13.0676 11.9934 13.0293C12.2446 12.9691 12.4743 12.8405 12.6569 12.6579C12.8396 12.4752 12.9682 12.2455 13.0284 11.9943C13.0667 11.8319 13.0667 11.648 13.0667 11.4343V9.10093C13.0667 8.8872 13.0667 8.70333 13.0284 8.54093C12.9685 8.28936 12.8401 8.05929 12.6574 7.87626C12.4747 7.69323 12.2448 7.56438 11.9934 7.504C11.831 7.46667 11.648 7.46667 11.4333 7.46667H9.14668ZM8.75748 8.41307C8.79762 8.40373 8.86015 8.4 9.14668 8.4H11.3867C11.6741 8.4 11.7357 8.4028 11.7759 8.41307C11.8597 8.43312 11.9364 8.476 11.9973 8.53695C12.0583 8.59791 12.1012 8.67456 12.1212 8.7584C12.1306 8.7976 12.1333 8.8592 12.1333 9.14667V11.3867C12.1333 11.6741 12.1296 11.7357 12.1203 11.7759C12.1002 11.8597 12.0574 11.9364 11.9964 11.9973C11.9354 12.0583 11.8588 12.1012 11.7749 12.1212C11.7357 12.1305 11.6741 12.1333 11.3867 12.1333H9.14668C8.85922 12.1333 8.79762 12.1296 8.75748 12.1203C8.67364 12.1002 8.59699 12.0573 8.53604 11.9964C8.47508 11.9354 8.4322 11.8588 8.41215 11.7749C8.40375 11.7367 8.40002 11.6751 8.40002 11.3867V9.14667C8.40002 8.8592 8.40282 8.7976 8.41308 8.75747C8.43313 8.67363 8.47601 8.59698 8.53697 8.53602C8.59793 8.47506 8.67457 8.43218 8.75842 8.41213" fill="#595E6C"/>
</g>
<defs>
<clipPath id="clip0_4203_18914">
<rect width="14" height="14" fill="white"/>
</clipPath>
</defs>
</svg>
