<svg width="20" height="19" viewBox="0 0 20 19" fill="none" xmlns="http://www.w3.org/2000/svg">
<path d="M5.95208 14.5695C5.56716 14.5695 5.198 14.4166 4.92582 14.1444C4.65364 13.8722 4.50073 13.503 4.50073 13.1181V10.2154M5.95208 14.5695V15.658C5.95208 15.7542 5.99031 15.8465 6.05836 15.9145C6.1264 15.9826 6.21869 16.0208 6.31492 16.0208C6.41115 16.0208 6.50344 15.9826 6.57149 15.9145C6.63953 15.8465 6.67776 15.7542 6.67776 15.658V14.5695M5.95208 14.5695H6.67776M4.50073 10.2154V5.86135M4.50073 10.2154H10.3061M6.67776 14.5695H13.9345M14.6602 14.5695C15.0451 14.5695 15.4143 14.4166 15.6865 14.1444C15.9586 13.8722 16.1115 13.503 16.1115 13.1181V10.2154M14.6602 14.5695V15.658C14.6602 15.7542 14.622 15.8465 14.5539 15.9145C14.4859 15.9826 14.3936 16.0208 14.2974 16.0208C14.2011 16.0208 14.1088 15.9826 14.0408 15.9145C13.9727 15.8465 13.9345 15.7542 13.9345 15.658V14.5695M14.6602 14.5695H13.9345M16.1115 10.2154V5.86135M16.1115 10.2154H10.3061M4.50073 5.86135C4.50073 5.09151 4.80655 4.35319 5.35091 3.80883C5.89528 3.26447 6.63359 2.95865 7.40344 2.95865H13.2088C13.9787 2.95865 14.717 3.26447 15.2614 3.80883C15.8057 4.35319 16.1115 5.09151 16.1115 5.86135M4.50073 5.86135H10.3061M10.3061 10.2154V5.86135M16.1115 5.86135H10.3061" stroke="#595E6C" stroke-width="1.16108" stroke-linecap="round" stroke-linejoin="round"/>
</svg>
