<svg width="16" height="16" viewBox="0 0 16 16" fill="none" xmlns="http://www.w3.org/2000/svg">
<path d="M7.9625 12.5C8.225 12.5 8.447 12.4093 8.6285 12.2278C8.81 12.0463 8.9005 11.8245 8.9 11.5625C8.8995 11.3005 8.809 11.0785 8.6285 10.8965C8.448 10.7145 8.226 10.624 7.9625 10.625C7.699 10.626 7.47725 10.7168 7.29725 10.8973C7.11725 11.0778 7.0265 11.2995 7.025 11.5625C7.0235 11.8255 7.11425 12.0475 7.29725 12.2285C7.48025 12.4095 7.702 12.5 7.9625 12.5ZM7.2875 9.6125H8.675C8.675 9.2 8.722 8.875 8.816 8.6375C8.91 8.4 9.1755 8.075 9.6125 7.6625C9.9375 7.3375 10.1938 7.028 10.3813 6.734C10.5688 6.44 10.6625 6.087 10.6625 5.675C10.6625 4.975 10.4062 4.4375 9.89375 4.0625C9.38125 3.6875 8.775 3.5 8.075 3.5C7.3625 3.5 6.7845 3.6875 6.341 4.0625C5.8975 4.4375 5.588 4.8875 5.4125 5.4125L6.65 5.9C6.7125 5.675 6.85325 5.43125 7.07225 5.16875C7.29125 4.90625 7.6255 4.775 8.075 4.775C8.475 4.775 8.775 4.8845 8.975 5.1035C9.175 5.3225 9.275 5.563 9.275 5.825C9.275 6.075 9.2 6.3095 9.05 6.5285C8.9 6.7475 8.7125 6.9505 8.4875 7.1375C7.9375 7.625 7.6 7.99375 7.475 8.24375C7.35 8.49375 7.2875 8.95 7.2875 9.6125ZM8 15.5C6.9625 15.5 5.9875 15.3033 5.075 14.9098C4.1625 14.5163 3.36875 13.9818 2.69375 13.3063C2.01875 12.6308 1.4845 11.837 1.091 10.925C0.697501 10.013 0.500501 9.038 0.500001 8C0.499501 6.962 0.696501 5.987 1.091 5.075C1.4855 4.163 2.01975 3.36925 2.69375 2.69375C3.36775 2.01825 4.1615 1.484 5.075 1.091C5.9885 0.698004 6.9635 0.501004 8 0.500004C9.0365 0.499004 10.0115 0.696004 10.925 1.091C11.8385 1.486 12.6323 2.02025 13.3063 2.69375C13.9803 3.36725 14.5148 4.161 14.9098 5.075C15.3048 5.989 15.5015 6.964 15.5 8C15.4985 9.036 15.3015 10.011 14.909 10.925C14.5165 11.839 13.9823 12.6328 13.3063 13.3063C12.6303 13.9798 11.8365 14.5143 10.925 14.9098C10.0135 15.3053 9.0385 15.502 8 15.5ZM8 14C9.675 14 11.0938 13.4188 12.2563 12.2563C13.4187 11.0938 14 9.675 14 8C14 6.325 13.4187 4.90625 12.2563 3.74375C11.0938 2.58125 9.675 2 8 2C6.325 2 4.90625 2.58125 3.74375 3.74375C2.58125 4.90625 2 6.325 2 8C2 9.675 2.58125 11.0938 3.74375 12.2563C4.90625 13.4188 6.325 14 8 14Z" fill="#727272"/>
</svg>
