<svg width="20" height="20" viewBox="0 0 20 20" fill="none" xmlns="http://www.w3.org/2000/svg">
<path fill-rule="evenodd" clip-rule="evenodd" d="M9.99996 10.2261C11.1919 10.2261 12.2719 10.6207 13.0642 11.1725C13.817 11.6975 14.4547 12.4777 14.4547 13.3171C14.4547 13.7778 14.2581 14.1597 13.9481 14.4435C13.6567 14.7114 13.2761 14.8852 12.8841 15.0035C12.1007 15.2409 11.0691 15.3173 9.99996 15.3173C8.93082 15.3173 7.89923 15.2409 7.11583 15.0035C6.72381 14.8852 6.34324 14.7114 6.05114 14.4435C5.74249 14.1603 5.54521 13.7785 5.54521 13.3177C5.54521 12.4783 6.18287 11.6981 6.93573 11.1731C7.72804 10.6207 8.808 10.2261 9.99996 10.2261ZM9.99996 11.4989C9.08355 11.4989 8.25433 11.8044 7.6644 12.2161C7.035 12.6552 6.81799 13.102 6.81799 13.3171C6.81799 13.5106 7.042 13.6315 7.24565 13.7078L7.37611 13.7524L7.4843 13.7855C8.08251 13.9662 8.96073 14.0445 9.99996 14.0445C10.9596 14.0445 11.7812 13.9777 12.3724 13.8256L12.5659 13.7702L12.6868 13.732C12.9051 13.6576 13.1819 13.5322 13.1819 13.3171C13.1819 13.102 12.9649 12.6552 12.3355 12.2161C11.7462 11.805 10.9164 11.4989 9.99996 11.4989ZM14.4547 10.8625C15.1191 10.8625 15.7224 11.0821 16.1685 11.3926C16.5758 11.6771 17.0003 12.15 17.0003 12.7265C17.0003 13.5761 16.1749 13.8803 15.4328 13.9866L15.2419 14.0101L15.058 14.026L14.9702 14.0311C15.0478 13.8116 15.0911 13.5729 15.0911 13.3171C15.0907 13.1267 15.0679 12.937 15.023 12.752C15.2687 12.7329 15.4704 12.7011 15.6206 12.6559C15.6868 12.6355 15.627 12.5732 15.5569 12.5191L15.4889 12.4694L15.4405 12.437C15.2495 12.3066 15.0341 12.2161 14.8073 12.171C14.5654 11.6873 14.1938 11.2685 13.798 10.9344C14.0136 10.8868 14.2338 10.8627 14.4547 10.8625ZM5.54521 10.8625C5.77304 10.8634 5.99196 10.8873 6.20196 10.9344C5.80613 11.2685 5.43447 11.6873 5.19265 12.171C4.96582 12.2161 4.75045 12.3066 4.55943 12.437L4.47798 12.493C4.39715 12.5515 4.30233 12.633 4.37933 12.6559C4.52952 12.7011 4.73126 12.7335 4.97754 12.752C4.93186 12.9369 4.90878 13.1266 4.90881 13.3171C4.90881 13.5729 4.95209 13.8116 5.02973 14.0311L4.85154 14.0184L4.66317 13.9993C3.89822 13.9058 2.99963 13.613 2.99963 12.7265C2.99963 12.1506 3.42347 11.6771 3.8314 11.3926C4.33604 11.047 4.93352 10.8621 5.54521 10.8625ZM14.1365 7.04417C14.5585 7.04417 14.9631 7.21179 15.2615 7.51016C15.5599 7.80852 15.7275 8.2132 15.7275 8.63515C15.7275 9.05711 15.5599 9.46178 15.2615 9.76015C14.9631 10.0585 14.5585 10.2261 14.1365 10.2261C13.7146 10.2261 13.3099 10.0585 13.0115 9.76015C12.7132 9.46178 12.5455 9.05711 12.5455 8.63515C12.5455 8.2132 12.7132 7.80852 13.0115 7.51016C13.3099 7.21179 13.7146 7.04417 14.1365 7.04417ZM5.8634 7.04417C6.28536 7.04417 6.69003 7.21179 6.9884 7.51016C7.28677 7.80852 7.45439 8.2132 7.45439 8.63515C7.45439 9.05711 7.28677 9.46178 6.9884 9.76015C6.69003 10.0585 6.28536 10.2261 5.8634 10.2261C5.44145 10.2261 5.03678 10.0585 4.73841 9.76015C4.44004 9.46178 4.27242 9.05711 4.27242 8.63515C4.27242 8.2132 4.44004 7.80852 4.73841 7.51016C5.03678 7.21179 5.44145 7.04417 5.8634 7.04417ZM9.99996 4.4986C10.6751 4.4986 11.3226 4.76679 11.8 5.24418C12.2773 5.72156 12.5455 6.36904 12.5455 7.04417C12.5455 7.7193 12.2773 8.36677 11.8 8.84416C11.3226 9.32155 10.6751 9.58974 9.99996 9.58974C9.32483 9.58974 8.67736 9.32155 8.19997 8.84416C7.72258 8.36677 7.45439 7.7193 7.45439 7.04417C7.45439 6.36904 7.72258 5.72156 8.19997 5.24418C8.67736 4.76679 9.32483 4.4986 9.99996 4.4986ZM14.1365 8.31696C14.0521 8.31696 13.9712 8.35048 13.9115 8.41015C13.8518 8.46983 13.8183 8.55076 13.8183 8.63515C13.8183 8.71954 13.8518 8.80048 13.9115 8.86015C13.9712 8.91983 14.0521 8.95335 14.1365 8.95335C14.2209 8.95335 14.3018 8.91983 14.3615 8.86015C14.4212 8.80048 14.4547 8.71954 14.4547 8.63515C14.4547 8.55076 14.4212 8.46983 14.3615 8.41015C14.3018 8.35048 14.2209 8.31696 14.1365 8.31696ZM5.8634 8.31696C5.77901 8.31696 5.69808 8.35048 5.6384 8.41015C5.57873 8.46983 5.54521 8.55076 5.54521 8.63515C5.54521 8.71954 5.57873 8.80048 5.6384 8.86015C5.69808 8.91983 5.77901 8.95335 5.8634 8.95335C5.94779 8.95335 6.02873 8.91983 6.0884 8.86015C6.14808 8.80048 6.1816 8.71954 6.1816 8.63515C6.1816 8.55076 6.14808 8.46983 6.0884 8.41015C6.02873 8.35048 5.94779 8.31696 5.8634 8.31696ZM9.99996 5.77138C9.6624 5.77138 9.33866 5.90548 9.09996 6.14417C8.86127 6.38287 8.72717 6.70661 8.72717 7.04417C8.72717 7.38173 8.86127 7.70547 9.09996 7.94417C9.33866 8.18286 9.6624 8.31696 9.99996 8.31696C10.3375 8.31696 10.6613 8.18286 10.9 7.94417C11.1386 7.70547 11.2727 7.38173 11.2727 7.04417C11.2727 6.70661 11.1386 6.38287 10.9 6.14417C10.6613 5.90548 10.3375 5.77138 9.99996 5.77138Z" fill="#595E6C" stroke="white" stroke-width="0.4"/>
</svg>
