<svg width="16" height="16" viewBox="0 0 16 16" fill="none" xmlns="http://www.w3.org/2000/svg">
<path d="M11.169 6.98501H14.153C14.2673 6.98501 14.3805 6.96247 14.4861 6.91869C14.5918 6.87491 14.6877 6.81073 14.7685 6.72984C14.8493 6.64895 14.9134 6.55292 14.957 6.44725C15.0007 6.34158 15.0231 6.22834 15.023 6.11401V3.13001C15.023 3.01568 15.0004 2.90246 14.9567 2.79684C14.9129 2.69123 14.8487 2.59527 14.7678 2.51447C14.6869 2.43367 14.5909 2.36961 14.4852 2.32595C14.3795 2.28229 14.2663 2.25988 14.152 2.26001H11.168C10.9372 2.26001 10.7159 2.35167 10.5528 2.51483C10.3896 2.67798 10.298 2.89927 10.298 3.13001V4.24901H9.17897C8.81649 4.2498 8.4691 4.39422 8.21288 4.65062C7.95666 4.90703 7.8125 5.25453 7.81197 5.61701V7.73001H5.57497V7.10901C5.57497 6.87845 5.48345 6.65731 5.32051 6.49418C5.15757 6.33105 4.93654 6.23928 4.70597 6.23901H2.71497C2.60064 6.23901 2.48742 6.26155 2.38181 6.30533C2.27619 6.34911 2.18023 6.41329 2.09943 6.49418C2.01863 6.57507 1.95457 6.6711 1.91091 6.77677C1.86725 6.88244 1.84484 6.99568 1.84497 7.11001V9.09901C1.84484 9.21334 1.86725 9.32658 1.91091 9.43225C1.95457 9.53792 2.01863 9.63395 2.09943 9.71484C2.18023 9.79573 2.27619 9.85991 2.38181 9.90369C2.48742 9.94747 2.60064 9.97001 2.71497 9.97001H4.70597C4.82031 9.97001 4.93352 9.94747 5.03914 9.90369C5.14476 9.85991 5.24071 9.79573 5.32151 9.71484C5.40231 9.63395 5.46637 9.53792 5.51003 9.43225C5.5537 9.32658 5.5761 9.21334 5.57597 9.09901V8.47801H7.81397V10.591C7.8145 10.9535 7.95866 11.301 8.21488 11.5574C8.4711 11.8138 8.81849 11.9582 9.18097 11.959H10.301V13.077C10.3008 13.1913 10.3232 13.3046 10.3669 13.4103C10.4106 13.5159 10.4746 13.6119 10.5554 13.6928C10.6362 13.7737 10.7322 13.8379 10.8378 13.8817C10.9434 13.9255 11.0566 13.948 11.171 13.948H14.155C14.2693 13.948 14.3825 13.9255 14.4881 13.8817C14.5938 13.8379 14.6897 13.7737 14.7705 13.6928C14.8513 13.6119 14.9154 13.5159 14.959 13.4103C15.0027 13.3046 15.0251 13.1913 15.025 13.077V10.093C15.025 9.97868 15.0024 9.86546 14.9587 9.75984C14.9149 9.65423 14.8507 9.55827 14.7698 9.47747C14.6889 9.39667 14.5929 9.33261 14.4872 9.28895C14.3815 9.24529 14.2683 9.22288 14.154 9.22301H11.17C11.0556 9.22301 10.9424 9.24555 10.8368 9.28933C10.7312 9.33311 10.6352 9.39729 10.5544 9.47818C10.4736 9.55907 10.4096 9.6551 10.3659 9.76077C10.3222 9.86644 10.2998 9.97968 10.3 10.094V11.212H9.17897C9.09738 11.2121 9.01657 11.1962 8.94117 11.165C8.86577 11.1338 8.79726 11.0881 8.73956 11.0304C8.68187 10.9727 8.63614 10.9042 8.60497 10.8288C8.57381 10.7534 8.55784 10.6726 8.55797 10.591V5.61801C8.55784 5.53642 8.57381 5.45561 8.60497 5.38021C8.63614 5.30481 8.68187 5.23629 8.73956 5.1786C8.79726 5.12091 8.86577 5.07517 8.94117 5.04401C9.01657 5.01285 9.09738 4.99688 9.17897 4.99701H10.299V6.11501C10.2988 6.22934 10.3212 6.34258 10.3649 6.44825C10.4086 6.55392 10.4726 6.64995 10.5534 6.73084C10.6342 6.81173 10.7302 6.87591 10.8358 6.91969C10.9414 6.96347 11.0546 6.98501 11.169 6.98501ZM4.82797 9.09801C4.82853 9.11444 4.8257 9.13082 4.81967 9.14612C4.81363 9.16141 4.80452 9.1753 4.79289 9.18693C4.78127 9.19856 4.76737 9.20767 4.75208 9.21371C4.73678 9.21974 4.72041 9.22257 4.70397 9.22201H2.71497C2.69854 9.22257 2.68216 9.21974 2.66687 9.21371C2.65157 9.20767 2.63768 9.19856 2.62605 9.18693C2.61442 9.1753 2.60531 9.16141 2.59927 9.14612C2.59324 9.13082 2.59041 9.11444 2.59097 9.09801V7.11001C2.59041 7.09358 2.59324 7.0772 2.59927 7.06191C2.60531 7.04661 2.61442 7.03272 2.62605 7.02109C2.63768 7.00946 2.65157 7.00035 2.66687 6.99431C2.68216 6.98828 2.69854 6.98545 2.71497 6.98601H4.70597C4.72241 6.98545 4.73878 6.98828 4.75408 6.99431C4.76937 7.00035 4.78327 7.00946 4.79489 7.02109C4.80652 7.03272 4.81563 7.04661 4.82167 7.06191C4.8277 7.0772 4.83053 7.09358 4.82997 7.11001L4.82797 9.09801ZM11.044 10.093C11.0433 10.0765 11.046 10.06 11.052 10.0446C11.0579 10.0292 11.067 10.0152 11.0787 10.0034C11.0903 9.99169 11.1043 9.98249 11.1196 9.97639C11.135 9.9703 11.1515 9.96744 11.168 9.96801H14.152C14.1684 9.96759 14.1848 9.97054 14.2 9.9767C14.2153 9.98286 14.2291 9.99208 14.2406 10.0038C14.2521 10.0155 14.2611 10.0295 14.2671 10.0448C14.273 10.0602 14.2757 10.0766 14.275 10.093V13.077C14.2754 13.0934 14.2725 13.1096 14.2664 13.1248C14.2603 13.14 14.2511 13.1538 14.2395 13.1653C14.2279 13.1768 14.2141 13.1858 14.1988 13.1918C14.1836 13.1978 14.1673 13.2006 14.151 13.2H11.167C11.1506 13.2004 11.1344 13.1975 11.1192 13.1914C11.104 13.1853 11.0902 13.1762 11.0787 13.1646C11.0672 13.1529 11.0582 13.1391 11.0522 13.1239C11.0462 13.1086 11.0434 13.0924 11.044 13.076V10.093ZM11.044 3.13101C11.0434 3.11458 11.0462 3.0982 11.0523 3.08291C11.0583 3.06761 11.0674 3.05372 11.079 3.04209C11.0907 3.03046 11.1046 3.02135 11.1199 3.01531C11.1352 3.00928 11.1515 3.00645 11.168 3.00701H14.152C14.1683 3.00659 14.1846 3.00952 14.1998 3.01562C14.2149 3.02171 14.2287 3.03085 14.2402 3.04246C14.2518 3.05408 14.2608 3.06792 14.2668 3.08315C14.2727 3.09838 14.2755 3.11466 14.275 3.13101V6.11501C14.2755 6.13144 14.2727 6.14782 14.2667 6.16311C14.2606 6.17841 14.2515 6.1923 14.2399 6.20393C14.2283 6.21556 14.2144 6.22467 14.1991 6.23071C14.1838 6.23674 14.1674 6.23957 14.151 6.23901H11.167C11.1506 6.23943 11.1344 6.2365 11.1192 6.2304C11.104 6.22431 11.0902 6.21517 11.0787 6.20356C11.0672 6.19195 11.0582 6.1781 11.0522 6.16287C11.0462 6.14765 11.0434 6.13136 11.044 6.11501V3.13101Z" fill="#595E6C"/>
</svg>
