<svg width="20" height="20" viewBox="0 0 20 20" fill="none" xmlns="http://www.w3.org/2000/svg">
<path d="M9.75052 14.1915V16.166M12.2187 13.2042V15.1788M7.28238 13.2042V15.1788M5.55468 7.5275C5.48922 7.5275 5.42644 7.5015 5.38015 7.45521C5.33386 7.40893 5.30786 7.34615 5.30786 7.28069C5.30786 7.21523 5.33386 7.15245 5.38015 7.10616C5.42644 7.05988 5.48922 7.03387 5.55468 7.03387C5.62014 7.03387 5.68291 7.05988 5.7292 7.10616C5.77549 7.15245 5.80149 7.21523 5.80149 7.28069C5.80149 7.34615 5.77549 7.40893 5.7292 7.45521C5.68291 7.5015 5.62014 7.5275 5.55468 7.5275ZM13.9464 7.5275C13.8809 7.5275 13.8181 7.5015 13.7718 7.45521C13.7256 7.40893 13.6996 7.34615 13.6996 7.28069C13.6996 7.21523 13.7256 7.15245 13.7718 7.10616C13.8181 7.05988 13.8809 7.03387 13.9464 7.03387C14.0118 7.03387 14.0746 7.05988 14.1209 7.10616C14.1672 7.15245 14.1932 7.21523 14.1932 7.28069C14.1932 7.34615 14.1672 7.40893 14.1209 7.45521C14.0746 7.5015 14.0118 7.5275 13.9464 7.5275Z" stroke="#595E6C" stroke-width="0.987258" stroke-linecap="round" stroke-linejoin="round"/>
<path d="M8.21484 6.7167C8.21484 6.60082 8.30878 6.50688 8.42466 6.50688H9.66858C9.65259 6.42295 9.62562 6.34702 9.58765 6.27908C9.55168 6.20914 9.49973 6.15019 9.43178 6.10223C9.36584 6.05228 9.28291 6.01431 9.183 5.98833C9.08509 5.96036 8.96819 5.94637 8.83231 5.94637H8.42466C8.30878 5.94637 8.21484 5.85243 8.21484 5.73655C8.21484 5.62067 8.30878 5.52673 8.42466 5.52673H10.7117C10.8275 5.52673 10.9215 5.62067 10.9215 5.73655C10.9215 5.85243 10.8275 5.94637 10.7117 5.94637H9.93834C9.99629 6.0203 10.0433 6.10423 10.0792 6.19815C10.1172 6.29007 10.1422 6.39298 10.1542 6.50688H10.7117C10.8275 6.50688 10.9215 6.60082 10.9215 6.7167C10.9215 6.83258 10.8275 6.92651 10.7117 6.92651H10.1392C10.0972 7.16631 9.99829 7.37113 9.84243 7.54098C9.68856 7.70883 9.49273 7.82473 9.25494 7.88868V7.90067C9.32288 7.93264 9.38483 7.96961 9.44078 8.01157C9.49673 8.05353 9.55068 8.10249 9.60264 8.15844C9.65459 8.2124 9.70555 8.27534 9.7555 8.34728C9.80746 8.41921 9.86241 8.50114 9.92036 8.59306L10.4565 9.45723C10.556 9.61764 10.4407 9.82499 10.2519 9.82499C10.1671 9.82499 10.0886 9.7804 10.0451 9.7076L9.43178 8.67999C9.36584 8.57008 9.3029 8.47317 9.24295 8.38924C9.185 8.30531 9.12205 8.23538 9.05411 8.17942C8.98817 8.12347 8.91423 8.08151 8.83231 8.05353C8.75238 8.02556 8.65846 8.01157 8.55055 8.01157H8.42016C8.30677 8.01157 8.21484 7.91964 8.21484 7.80625C8.21484 7.69285 8.30677 7.60093 8.42016 7.60093H8.82931C8.93122 7.60093 9.02814 7.58494 9.12006 7.55297C9.21198 7.519 9.2939 7.47304 9.36584 7.41509C9.43978 7.35514 9.50172 7.2842 9.55168 7.20227C9.60363 7.11835 9.6406 7.02643 9.66258 6.92651H8.42466C8.30878 6.92651 8.21484 6.83258 8.21484 6.7167Z" fill="#595E6C"/>
<path d="M15.1807 3.3327H4.32088C4.05904 3.3327 3.80793 3.43672 3.62278 3.62186C3.43763 3.80701 3.33362 4.05812 3.33362 4.31996V10.2435C3.33362 10.5053 3.43763 10.7565 3.62278 10.9416C3.80793 11.1268 4.05904 11.2308 4.32088 11.2308H15.1807C15.4426 11.2308 15.6937 11.1268 15.8788 10.9416C16.064 10.7565 16.168 10.5053 16.168 10.2435V4.31996C16.168 4.05812 16.064 3.80701 15.8788 3.62186C15.6937 3.43672 15.4426 3.3327 15.1807 3.3327Z" stroke="#595E6C" stroke-width="0.987258" stroke-linecap="round" stroke-linejoin="round"/>
</svg>
