<svg width="20" height="20" viewBox="0 0 20 20" fill="none" xmlns="http://www.w3.org/2000/svg">
<path d="M9.75315 5.29173C9.27454 4.69512 8.09988 4.16666 6.79477 4.16666C5.06725 4.16666 3.67516 5.05547 3.33337 5.88834V14.5702C3.33337 15.0424 3.64414 15.2225 3.97957 15.2225C4.25321 15.2225 4.40833 15.1419 4.57618 15.0114C4.93043 14.7067 5.6453 14.2965 6.79503 14.2965C7.9384 14.2965 8.73998 14.6943 9.05074 14.974C9.21249 15.1045 9.41136 15.2227 9.75315 15.2227C10.0886 15.2227 10.2813 15.0923 10.4492 14.974C10.7785 14.7131 11.5615 14.2968 12.7052 14.2968C13.8546 14.2968 14.5756 14.7131 14.9238 15.0114C15.0916 15.1419 15.247 15.2227 15.5204 15.2227C15.8561 15.2227 16.1666 15.0424 16.1666 14.5702V5.88834C15.8248 5.05547 14.4327 4.16666 12.7052 4.16666C11.4001 4.16666 10.2254 4.69512 9.75315 5.29173ZM4.33382 6.18664C4.47701 5.8011 5.37802 5.10506 6.79503 5.10506C8.20568 5.10506 9.12552 5.80746 9.24961 6.18664V14.0481C8.65937 13.6069 7.75809 13.3581 6.79503 13.3581C5.82534 13.3581 4.92433 13.6069 4.33382 14.073V6.18664ZM15.1661 6.18664V14.073C14.5756 13.6069 13.6746 13.3581 12.7052 13.3581C11.7418 13.3581 10.8406 13.6069 10.2503 14.0481V6.18664C10.3744 5.80746 11.2943 5.10506 12.7052 5.10506C14.1219 5.10506 15.0235 5.8011 15.1661 6.18664Z" fill="#595E6C"/>
</svg>
