<svg width="20" height="20" viewBox="0 0 20 20" fill="none" xmlns="http://www.w3.org/2000/svg">
<path d="M6.64963 14.1003L5.22176 15.5282C5.02517 15.7248 4.80002 15.7688 4.54632 15.6604C4.29261 15.552 4.16597 15.3579 4.16638 15.0781V5.40895C4.16638 5.0675 4.28806 4.77531 4.53142 4.53237C4.77478 4.28942 5.06697 4.16774 5.40801 4.16733H15.341C15.6824 4.16733 15.9748 4.28901 16.2182 4.53237C16.4616 4.77572 16.583 5.06792 16.5826 5.40895V12.8587C16.5826 13.2001 16.4611 13.4925 16.2182 13.7359C15.9753 13.9793 15.6828 14.1007 15.341 14.1003H6.64963ZM6.12194 12.8587H15.341V5.40895H5.40801V13.5571L6.12194 12.8587Z" fill="#595E6C"/>
<path d="M7.2802 9.47191C7.12739 9.62472 6.93824 9.70112 6.71274 9.70112C6.48831 9.70218 6.29942 9.62604 6.14608 9.4727C5.99275 9.31937 5.91634 9.13021 5.91687 8.90525C5.9174 8.68028 5.99381 8.49139 6.14608 8.33859C6.29836 8.18578 6.48725 8.10938 6.71274 8.10938C6.93824 8.10938 7.12713 8.18578 7.27941 8.33859C7.43168 8.49139 7.50809 8.68028 7.50862 8.90525C7.50915 9.13021 7.43301 9.3191 7.2802 9.47191Z" fill="#595E6C"/>
<path d="M10.4637 9.47191C10.3109 9.62472 10.1217 9.70112 9.89623 9.70112C9.6718 9.70218 9.48291 9.62604 9.32957 9.4727C9.17624 9.31937 9.09983 9.13021 9.10036 8.90525C9.10089 8.68028 9.1773 8.49139 9.32957 8.33859C9.48185 8.18578 9.67074 8.10938 9.89623 8.10938C10.1217 8.10938 10.3106 8.18578 10.4629 8.33859C10.6152 8.49139 10.6916 8.68028 10.6921 8.90525C10.6926 9.13021 10.6165 9.3191 10.4637 9.47191Z" fill="#595E6C"/>
<path d="M13.6472 9.47191C13.4944 9.62472 13.3052 9.70112 13.0797 9.70112C12.8553 9.70218 12.6664 9.62604 12.5131 9.4727C12.3597 9.31937 12.2833 9.13021 12.2839 8.90525C12.2844 8.68028 12.3608 8.49139 12.5131 8.33859C12.6653 8.18578 12.8542 8.10938 13.0797 8.10938C13.3052 8.10938 13.4941 8.18578 13.6464 8.33859C13.7987 8.49139 13.8751 8.68028 13.8756 8.90525C13.8761 9.13021 13.8 9.3191 13.6472 9.47191Z" fill="#595E6C"/>
</svg>
