<svg width="20" height="20" viewBox="0 0 20 20" fill="none" xmlns="http://www.w3.org/2000/svg">
<path d="M16.6804 15.3336C16.6137 15.0314 16.2992 14.8373 15.9779 14.9001C15.6566 14.9628 15.4503 15.2586 15.517 15.5607C15.543 15.6789 15.5112 15.8008 15.4295 15.8952C15.3847 15.947 15.2858 16.0338 15.1264 16.0338H11.1809L12.7853 12.1756C13.3695 12.4603 13.8979 12.8485 14.3384 13.3266C14.5532 13.5598 14.9284 13.5851 15.1765 13.383C15.4244 13.181 15.4513 12.8281 15.2365 12.5949C14.507 11.803 13.5813 11.2124 12.5557 10.864C13.2998 10.2742 13.7734 9.39172 13.7734 8.40706C13.7734 7.82868 13.6118 7.27402 13.3092 6.78801L15.1398 6.15367V8.90995C15.1398 9.21854 15.4058 9.46868 15.734 9.46868C16.0621 9.46868 16.3281 9.21854 16.3281 8.90995V5.38991C16.3281 5.38441 16.3274 5.37904 16.3272 5.37357C16.3275 5.3665 16.3281 5.35946 16.3281 5.35233V5.32091C16.3281 5.08886 16.1756 4.88096 15.9449 4.79857L10.5849 2.88406C10.4496 2.83573 10.3002 2.83551 10.1646 2.88348L4.77105 4.79279C4.53952 4.87475 4.38624 5.08305 4.38624 5.31571V5.34714C4.38624 5.58172 4.54204 5.79133 4.77631 5.8719L7.41123 6.77803C7.1046 7.26626 6.94092 7.82432 6.94092 8.40708C6.94092 9.39284 7.41559 10.2761 8.16107 10.8659C7.47284 11.1004 6.82685 11.4445 6.25596 11.8874C5.12093 12.768 4.33179 13.9962 4.03386 15.3458C3.93548 15.7915 4.0538 16.2491 4.35852 16.6013C4.66099 16.9508 5.10907 17.1513 5.58787 17.1513H15.1264C15.6019 17.1513 16.0483 16.9506 16.3512 16.6005C16.6595 16.2442 16.7795 15.7824 16.6804 15.3336ZM6.64327 5.32406L10.373 4.00374L14.0831 5.32895L12.4117 5.90814C11.8278 5.6531 10.9203 5.60723 10.3637 5.60606C9.80699 5.6043 8.89878 5.64662 8.31471 5.89886L6.64327 5.32406ZM8.12919 8.40708C8.12919 7.8457 8.36206 7.31942 8.78474 6.92331C8.8995 6.8574 9.42717 6.7235 10.3413 6.7235C10.3483 6.7235 10.3553 6.7235 10.3623 6.7235C11.29 6.72557 11.8235 6.864 11.9379 6.93107C12.3552 7.32624 12.5851 7.84977 12.5851 8.40706C12.5851 9.56238 11.5856 10.5023 10.3571 10.5023C9.12865 10.5023 8.12919 9.56241 8.12919 8.40708ZM5.58787 16.0338C5.42396 16.0338 5.32474 15.9475 5.28021 15.896C5.23434 15.8429 5.16257 15.7305 5.19733 15.5729C5.52674 14.0806 6.56271 12.8551 7.93162 12.182L9.53333 16.0338H5.58787ZM9.03998 11.7791C9.46323 11.6751 9.90493 11.6198 10.3571 11.6198C10.8065 11.6198 11.2489 11.6738 11.6752 11.777L10.3571 14.9467L9.03998 11.7791Z" fill="#595E6C"/>
</svg>
