<svg width="20" height="20" viewBox="0 0 20 20" fill="none" xmlns="http://www.w3.org/2000/svg">
<path fill-rule="evenodd" clip-rule="evenodd" d="M9.59177 4.29259C9.75731 4.20977 9.93986 4.16666 10.125 4.16666C10.3101 4.16666 10.4926 4.20977 10.6581 4.29259L15.4248 6.67593C15.8279 6.87749 16.0833 7.29014 16.0833 7.74162V15.4922C16.0833 15.6277 16.0295 15.7576 15.9337 15.8533C15.8379 15.9491 15.708 16.0029 15.5726 16.0029C15.4371 16.0029 15.3072 15.9491 15.2114 15.8533C15.1157 15.7576 15.0619 15.6277 15.0619 15.4922V7.74162C15.0619 7.70997 15.0532 7.67893 15.0366 7.65199C15.02 7.62504 14.9962 7.60326 14.9679 7.58908L10.2012 5.20575C10.1776 5.19389 10.1514 5.18771 10.125 5.18771C10.0985 5.18771 10.0724 5.19389 10.0487 5.20575L5.28203 7.58908C5.25373 7.60326 5.22995 7.62504 5.21335 7.65199C5.19675 7.67893 5.18799 7.70997 5.18805 7.74162V15.4922C5.18805 15.6277 5.13425 15.7576 5.03847 15.8533C4.94269 15.9491 4.81279 16.0029 4.67734 16.0029C4.54189 16.0029 4.41199 15.9491 4.31621 15.8533C4.22043 15.7576 4.16663 15.6277 4.16663 15.4922V7.74162C4.16663 7.29014 4.42198 6.87749 4.82511 6.67593L9.59177 4.29259ZM6.20948 10.0446C6.20948 9.3868 6.74335 8.85293 7.40115 8.85293H12.8488C13.5066 8.85293 14.0404 9.3868 14.0404 10.0446V14.8113C14.0404 15.1273 13.9149 15.4304 13.6914 15.6539C13.4679 15.8774 13.1648 16.0029 12.8488 16.0029H7.40115C7.0851 16.0029 6.782 15.8774 6.55851 15.6539C6.33503 15.4304 6.20948 15.1273 6.20948 14.8113V10.0446ZM7.40115 9.87436C7.356 9.87436 7.3127 9.89229 7.28077 9.92422C7.24885 9.95615 7.23091 9.99945 7.23091 10.0446V10.8958H13.019V10.0446C13.019 9.99945 13.0011 9.95615 12.9691 9.92422C12.9372 9.89229 12.8939 9.87436 12.8488 9.87436H7.40115ZM13.019 11.9172H7.23091V12.9386H13.019V11.9172ZM13.019 13.9601H7.23091V14.8113C7.23091 14.9052 7.30718 14.9815 7.40115 14.9815H12.8488C12.8939 14.9815 12.9372 14.9636 12.9691 14.9316C13.0011 14.8997 13.019 14.8564 13.019 14.8113V13.9601Z" fill="#595E6C"/>
</svg>
