<svg width="331" height="18" viewBox="0 0 331 18" fill="none" xmlns="http://www.w3.org/2000/svg">
<path d="M67.8513 8.20899L68.0232 8.42871C65.3585 8.13575 62.3498 8.42871 59.5131 8.28223L59.6851 8.35547C52.4644 8.42871 45.8454 8.13575 38.7107 7.98926C38.7966 7.98926 38.8826 8.0625 38.9685 8.0625C38.6247 7.98926 38.2808 7.91602 37.851 7.91602C37.7651 7.98926 37.937 7.98926 38.1089 7.98926C36.5616 8.28223 33.7249 7.84278 32.7794 8.0625C32.3496 8.0625 32.1776 7.91602 32.4355 7.84278C26.8481 7.76954 20.9168 7.6963 15.2434 7.54981C14.9855 7.62305 14.8995 7.62305 14.9855 7.76954C10.0857 7.25684 4.92811 7.47657 0.0283483 7.54981C-0.143573 7.40333 0.544112 7.40333 0.0283483 7.33009C1.57564 7.11036 2.95101 7.54981 4.41234 7.33009L4.24042 7.25684C5.27195 7.1836 4.41234 7.54981 5.52983 7.40333C5.95963 7.33009 5.44387 7.25684 5.61579 7.25684C7.85077 7.33009 10.1717 7.1836 12.3207 7.47657C12.8365 7.25684 14.7276 7.47657 15.5872 7.25684C16.189 7.33009 16.7047 7.33009 16.9626 7.47657C24.6991 7.33009 32.7794 7.54981 40.7737 7.54981C44.556 7.98926 49.0259 7.47657 53.4959 7.62305V7.54981C54.9572 7.6963 57.1062 7.6963 58.8255 7.62305L60.2868 7.84278C70.774 7.47657 81.4331 7.6963 92.0063 7.54981C104.041 7.40333 114.614 7.11036 126.391 7.6963C126.391 7.62305 126.476 7.62305 126.133 7.62305C129.485 7.6963 132.58 7.54981 135.76 7.62305V7.54981C139.714 7.76954 143.841 7.6963 147.881 7.6963H149.428C149.858 7.6963 150.374 7.62305 150.803 7.54981C151.749 7.33009 152.609 6.89063 153.382 6.45118C154.929 5.49904 156.305 4.25393 157.68 3.08206C159.313 1.61722 161.978 0.884799 164.471 1.39749C165.675 1.61722 166.878 2.20315 167.824 2.93557C168.769 3.66799 169.543 4.47365 170.402 5.27931C171.262 6.01173 172.208 6.74415 173.325 7.25684C173.841 7.47657 174.443 7.6963 175.044 7.84278C175.646 7.98926 176.248 7.98926 176.849 7.98926C179.342 7.98926 181.835 8.0625 184.328 8.0625V7.98926C192.236 8.20899 199.801 7.6963 207.623 7.84278C215.704 7.62305 224.214 8.35547 232.38 8.0625C237.452 7.62305 244.071 8.5752 248.798 8.13575C258.512 7.40333 267.968 7.91602 277.681 8.28223C286.621 8.06251 295.647 8.64844 304.329 8.13575C308.455 8.50196 313.011 7.6963 317.567 7.84278L317.395 7.98926C319.028 7.62305 321.091 8.50196 322.123 7.98926H321.951C322.811 7.6963 324.014 8.5752 324.53 8.28223L324.702 8.42871C325.733 8.50196 324.788 8.28223 325.647 8.20899C325.991 8.20899 325.733 8.42871 326.421 8.35547C326.593 7.84278 329 8.50196 329.086 7.91602C328.484 7.91602 329.945 7.6963 328.656 7.54981C329 7.47657 330.805 7.54981 330.633 7.76954C330.805 8.0625 331.493 8.28223 330.375 8.50196L330.203 8.28223C329.859 8.50196 329.945 8.35547 329.773 8.50196C328.398 8.50196 328.14 8.79492 327.195 8.94141C326.507 8.72168 325.561 8.86817 325.046 8.86817L324.874 8.94141C324.53 9.16113 323.24 8.50196 323.67 8.86817C320.834 8.79492 317.567 8.79492 314.387 8.79492C313.957 8.64844 311.98 8.79492 312.667 8.50196C311.894 8.79492 309.487 8.94141 308.627 8.86817C308.627 8.86817 308.713 8.94141 308.799 8.94141C307.08 9.38086 306.736 8.5752 305.189 9.08789C304.931 8.72168 302.266 9.23438 301.406 8.79492C300.977 8.86817 300.977 8.94141 300.977 9.01465C298.054 9.01465 294.873 9.16113 292.467 9.16113C290.404 8.86817 287.395 9.30762 285.676 8.86817C284.214 8.94141 281.807 9.16113 279.744 8.94141L279.916 9.01465C277.595 9.01465 274.673 8.94141 273.039 8.72168C272.352 9.16113 271.32 9.08789 270.289 9.23438C268.741 9.01465 265.561 9.08789 263.24 8.94141C262.896 9.16113 261.263 8.86817 261.177 9.16113C254.472 8.5752 246.22 8.79492 239.085 9.23438H239.171C238.225 9.08789 237.194 8.72168 236.248 8.5752C236.162 8.5752 236.162 8.64844 236.334 8.64844C235.045 8.5752 233.841 8.86817 232.552 8.79492C232.552 8.79492 232.638 8.86817 232.81 8.86817C231.606 8.72168 230.317 9.08789 228.856 8.86817H228.77L227.824 8.79492C227.824 8.86817 227.91 9.01465 228.34 9.01465C217.165 9.08789 205.646 8.64844 194.128 8.72168L194.557 8.79492L192.322 8.64844C192.322 8.72168 192.408 8.72168 192.58 8.72168C189.744 8.86817 186.821 8.64844 184.07 8.64844C184.07 8.72168 184.5 8.79492 184.156 8.86817C182.093 8.64844 180.89 9.16113 179.858 8.64844C179.772 8.64844 179.686 8.79492 179.944 8.79492C179.256 8.79492 178.483 8.72168 177.795 8.72168C177.107 8.72168 176.42 8.72168 175.56 8.64844C173.927 8.42871 172.637 7.6963 171.434 6.89063C170.316 6.08497 169.285 5.13283 168.253 4.25393C167.738 3.81448 167.308 3.37502 166.792 3.08206C166.276 2.78909 165.675 2.49612 165.073 2.34964C164.127 1.91019 162.924 1.7637 161.72 1.98343C160.517 2.12991 159.399 2.6426 158.54 3.30178C156.821 4.76662 155.101 6.59767 152.78 7.54981L152.866 7.62305C152.093 7.91602 151.319 8.20899 150.46 8.28223C149.6 8.35547 148.826 8.28223 147.967 8.28223C146.333 8.28223 144.7 8.28223 142.981 8.28223C139.628 8.35547 136.276 8.42871 132.924 8.35547C130.173 8.42871 128.282 8.28223 125.531 8.28223L125.445 8.42871C120.803 7.98926 115.645 8.86817 110.746 8.35547L111.09 8.50196C110.316 8.28223 108.167 8.5752 108.425 8.13575L107.565 8.28223C104.299 7.6963 101.548 8.5752 97.5078 8.13575L97.7656 8.20899C96.6481 8.13575 95.4447 8.0625 94.5851 8.13575C94.757 8.13575 94.6711 8.20899 94.9289 8.20899C91.5765 8.64844 87.7942 8.13575 84.2698 8.20899L84.6996 8.42871C82.9804 8.20899 79.7999 8.42871 77.5649 8.28223L77.7368 8.35547L76.6193 8.20899V8.35547C73.5247 8.42871 70.774 8.28223 67.8513 8.20899Z" fill="url(#paint0_linear_2_241)"/>
<g filter="url(#filter0_f_2_241)">
<ellipse cx="163.117" cy="8.93604" rx="6.07225" ry="5.17334" fill="#0F6CBD"/>
</g>
<g filter="url(#filter1_i_2_241)">
<path d="M162.649 3.7627L169.189 9.33398L162.649 14.9053L156.11 9.33398L162.649 3.7627Z" fill="#0F6CBD"/>
</g>
<defs>
<filter id="filter0_f_2_241" x="154.044" y="0.762695" width="18.1445" height="16.3467" filterUnits="userSpaceOnUse" color-interpolation-filters="sRGB">
<feFlood flood-opacity="0" result="BackgroundImageFix"/>
<feBlend mode="normal" in="SourceGraphic" in2="BackgroundImageFix" result="shape"/>
<feGaussianBlur stdDeviation="1.5" result="effect1_foregroundBlur_2_241"/>
</filter>
<filter id="filter1_i_2_241" x="156.11" y="3.7627" width="13.0787" height="12.1426" filterUnits="userSpaceOnUse" color-interpolation-filters="sRGB">
<feFlood flood-opacity="0" result="BackgroundImageFix"/>
<feBlend mode="normal" in="SourceGraphic" in2="BackgroundImageFix" result="shape"/>
<feColorMatrix in="SourceAlpha" type="matrix" values="0 0 0 0 0 0 0 0 0 0 0 0 0 0 0 0 0 0 127 0" result="hardAlpha"/>
<feOffset dy="1"/>
<feGaussianBlur stdDeviation="3.5"/>
<feComposite in2="hardAlpha" operator="arithmetic" k2="-1" k3="1"/>
<feColorMatrix type="matrix" values="0 0 0 0 0 0 0 0 0 0 0 0 0 0 0 0 0 0 0.25 0"/>
<feBlend mode="normal" in2="shape" result="effect1_innerShadow_2_241"/>
</filter>
<linearGradient id="paint0_linear_2_241" x1="-4.67456" y1="5.24438" x2="330.925" y2="5.24438" gradientUnits="userSpaceOnUse">
<stop stop-color="#0F6CBD" stop-opacity="0"/>
<stop offset="0.25" stop-color="#0F6CBD"/>
<stop offset="0.500694" stop-color="#0F6CBD"/>
<stop offset="0.75" stop-color="#0F6CBD"/>
<stop offset="1" stop-color="#0F6CBD" stop-opacity="0"/>
</linearGradient>
</defs>
</svg>
