<svg width="24" height="25" viewBox="0 0 24 25" fill="none" xmlns="http://www.w3.org/2000/svg">
<path fill-rule="evenodd" clip-rule="evenodd" d="M6.25118 11.7435C6.09035 11.5794 6 11.3569 6 11.1249C6 10.8929 6.09035 10.6704 6.25118 10.5063L11.3986 5.25619C11.5595 5.09215 11.7777 5 12.0052 5C12.2327 5 12.4508 5.09215 12.6117 5.25619L17.7592 10.5063C17.9155 10.6713 18.0019 10.8923 18 11.1217C17.998 11.3512 17.9078 11.5706 17.7487 11.7329C17.5897 11.8951 17.3745 11.9871 17.1495 11.9891C16.9246 11.9911 16.7079 11.9029 16.5461 11.7435L12.8631 7.9871V18.125C12.8631 18.3571 12.7727 18.5796 12.6118 18.7437C12.4509 18.9078 12.2327 19 12.0052 19C11.7776 19 11.5594 18.9078 11.3985 18.7437C11.2377 18.5796 11.1473 18.3571 11.1473 18.125V7.9871L7.46427 11.7435C7.30339 11.9076 7.08521 11.9997 6.85773 11.9997C6.63024 11.9997 6.41207 11.9076 6.25118 11.7435Z" fill="white"/>
</svg>
