<svg width="24" height="24" viewBox="0 0 24 24" fill="none" xmlns="http://www.w3.org/2000/svg">
<path d="M20 11C20.5523 11 21 11.4477 21 12C21 12.5523 20.5523 13 20 13V12V11ZM4.29289 12.7071C3.90237 12.3166 3.90237 11.6834 4.29289 11.2929L10.6569 4.92893C11.0474 4.53841 11.6805 4.53841 12.0711 4.92893C12.4616 5.31946 12.4616 5.95262 12.0711 6.34315L6.41421 12L12.0711 17.6569C12.4616 18.0474 12.4616 18.6805 12.0711 19.0711C11.6805 19.4616 11.0474 19.4616 10.6569 19.0711L4.29289 12.7071ZM20 12V13H5V12V11H20V12Z" fill="#3425FF"/>
</svg>
