<svg width="28" height="28" viewBox="0 0 28 28" fill="none" xmlns="http://www.w3.org/2000/svg">
<path d="M9.12915 15.1663L14.8458 20.8829C15.0791 21.1163 15.1911 21.3885 15.1818 21.6996C15.1725 22.0107 15.0508 22.2829 14.8166 22.5163C14.5833 22.7302 14.3111 22.8422 14 22.8523C13.6889 22.8624 13.4166 22.7504 13.1833 22.5163L5.48331 14.8163C5.36665 14.6996 5.28381 14.5732 5.23481 14.4371C5.18581 14.301 5.16209 14.1552 5.16365 13.9996C5.1652 13.8441 5.1897 13.6982 5.23715 13.5621C5.28459 13.426 5.36704 13.2996 5.48448 13.1829L13.1845 5.48294C13.3984 5.26905 13.6659 5.16211 13.9871 5.16211C14.3084 5.16211 14.5853 5.26905 14.8178 5.48294C15.0511 5.71628 15.1678 5.99355 15.1678 6.31478C15.1678 6.636 15.0511 6.91289 14.8178 7.14544L9.12915 12.8329H22.1666C22.4972 12.8329 22.7745 12.9449 22.9985 13.1689C23.2225 13.3929 23.3341 13.6698 23.3333 13.9996C23.3325 14.3294 23.2205 14.6067 22.9973 14.8314C22.7741 15.0562 22.4972 15.1678 22.1666 15.1663H9.12915Z" fill="black"/>
</svg>
