<svg width="16" height="16" viewBox="0 0 16 16" fill="none" xmlns="http://www.w3.org/2000/svg">
<g clip-path="url(#clip0_3160_239)">
<path d="M15.2 1.60059H0.8C0.587827 1.60059 0.384344 1.68487 0.234315 1.8349C0.0842855 1.98493 0 2.18841 0 2.40059L0 9.86725C0 10.0794 0.0842855 10.2829 0.234315 10.4329C0.384344 10.583 0.587827 10.6673 0.8 10.6673H15.2C15.4122 10.6673 15.6157 10.583 15.7657 10.4329C15.9157 10.2829 16 10.0794 16 9.86725V2.40059C16 2.18841 15.9157 1.98493 15.7657 1.8349C15.6157 1.68487 15.4122 1.60059 15.2 1.60059ZM15.4667 9.86725C15.4667 9.93798 15.4386 10.0058 15.3886 10.0558C15.3386 10.1058 15.2707 10.1339 15.2 10.1339H0.8C0.729276 10.1339 0.661448 10.1058 0.611438 10.0558C0.561428 10.0058 0.533333 9.93798 0.533333 9.86725V2.40059C0.533333 2.32986 0.561428 2.26203 0.611438 2.21202C0.661448 2.16201 0.729276 2.13392 0.8 2.13392H15.2C15.2707 2.13392 15.3386 2.16201 15.3886 2.21202C15.4386 2.26203 15.4667 2.32986 15.4667 2.40059V9.86725Z" fill="black"/>
<path d="M14.4003 4.53369H11.2003C11.0589 4.53369 10.9232 4.58988 10.8232 4.6899C10.7232 4.78992 10.667 4.92558 10.667 5.06702V5.60036C10.667 5.74181 10.7232 5.87746 10.8232 5.97748C10.9232 6.0775 11.0589 6.13369 11.2003 6.13369H14.4003C14.5418 6.13369 14.6774 6.0775 14.7774 5.97748C14.8775 5.87746 14.9337 5.74181 14.9337 5.60036V5.06702C14.9337 4.92558 14.8775 4.78992 14.7774 4.6899C14.6774 4.58988 14.5418 4.53369 14.4003 4.53369ZM11.2003 5.60036V5.06702H14.4003V5.60036H11.2003Z" fill="black"/>
<path d="M15.2001 11.4665H14.3259C14.2795 11.3857 14.2126 11.3185 14.132 11.2717C14.0514 11.2249 13.9599 11.2001 13.8667 11.1998H5.86673C4.35054 11.1869 2.83471 11.2529 1.32539 11.3977C1.15532 11.4159 0.994205 11.4831 0.861643 11.5912C0.729082 11.6993 0.63079 11.8436 0.578727 12.0065L0.272327 11.9998C0.201957 11.9996 0.134237 12.0266 0.0834441 12.0754C0.0326513 12.1241 0.00275545 12.1906 6.00255e-05 12.2609C-0.000683145 12.2959 0.00548085 12.3307 0.0181999 12.3634C0.0309189 12.396 0.0499437 12.4258 0.0741875 12.4511C0.0984313 12.4764 0.127419 12.4967 0.159495 12.5107C0.19157 12.5248 0.226105 12.5324 0.261127 12.5332L0.576593 12.5401C0.627062 12.7032 0.723538 12.8482 0.85443 12.9577C0.985321 13.0673 1.14506 13.1367 1.31446 13.1577C2.82744 13.3008 4.34722 13.3593 5.86673 13.3332H12.8001V13.8665H10.1334C10.0627 13.8665 9.99484 13.8946 9.94483 13.9446C9.89482 13.9946 9.86673 14.0624 9.86673 14.1332C9.86673 14.2039 9.89482 14.2717 9.94483 14.3217C9.99484 14.3717 10.0627 14.3998 10.1334 14.3998H13.6001C13.6708 14.3998 13.7386 14.3717 13.7886 14.3217C13.8386 14.2717 13.8667 14.2039 13.8667 14.1332C13.8667 14.0624 13.8386 13.9946 13.7886 13.9446C13.7386 13.8946 13.6708 13.8665 13.6001 13.8665H13.3334V13.3332H13.8667C13.9599 13.3329 14.0514 13.3081 14.132 13.2613C14.2126 13.2145 14.2795 13.1473 14.3259 13.0665H15.2001C15.4122 13.0665 15.6157 12.9822 15.7657 12.8322C15.9158 12.6822 16.0001 12.4787 16.0001 12.2665C16.0001 12.0543 15.9158 11.8508 15.7657 11.7008C15.6157 11.5508 15.4122 11.4665 15.2001 11.4665ZM6.13339 11.7332H12.0001V12.7998H6.13339V11.7332ZM1.06673 12.2782C1.06677 12.1912 1.09902 12.1072 1.15726 12.0425C1.21551 11.9778 1.29563 11.937 1.38219 11.9278C2.03313 11.8582 3.43046 11.743 5.60006 11.7332V12.7998C4.19079 12.8196 2.78149 12.7624 1.37846 12.6284C1.29268 12.6182 1.2136 12.577 1.15616 12.5124C1.09872 12.4479 1.06691 12.3646 1.06673 12.2782ZM12.5334 12.7998V11.7332H13.8667V12.7998H12.5334ZM15.2001 12.5332H14.4001V11.9998H15.2001C15.2708 11.9998 15.3386 12.0279 15.3886 12.0779C15.4386 12.1279 15.4667 12.1958 15.4667 12.2665C15.4667 12.3372 15.4386 12.4051 15.3886 12.4551C15.3386 12.5051 15.2708 12.5332 15.2001 12.5332Z" fill="black"/>
<path d="M1.33307 5.06702H3.19974C3.27046 5.06702 3.33829 5.03893 3.3883 4.98892C3.43831 4.93891 3.46641 4.87108 3.46641 4.80036C3.46641 4.72963 3.43831 4.66181 3.3883 4.6118C3.33829 4.56179 3.27046 4.53369 3.19974 4.53369H1.33307C1.26235 4.53369 1.19452 4.56179 1.14451 4.6118C1.0945 4.66181 1.06641 4.72963 1.06641 4.80036C1.06641 4.87108 1.0945 4.93891 1.14451 4.98892C1.19452 5.03893 1.26235 5.06702 1.33307 5.06702Z" fill="black"/>
<path d="M1.33307 6.13392H3.19974C3.27046 6.13392 3.33829 6.10582 3.3883 6.05581C3.43831 6.0058 3.46641 5.93798 3.46641 5.86725C3.46641 5.79653 3.43831 5.7287 3.3883 5.67869C3.33829 5.62868 3.27046 5.60059 3.19974 5.60059H1.33307C1.26235 5.60059 1.19452 5.62868 1.14451 5.67869C1.0945 5.7287 1.06641 5.79653 1.06641 5.86725C1.06641 5.93798 1.0945 6.0058 1.14451 6.05581C1.19452 6.10582 1.26235 6.13392 1.33307 6.13392Z" fill="black"/>
<path d="M4.26667 6.13392H9.86667C9.93739 6.13392 10.0052 6.10582 10.0552 6.05581C10.1052 6.0058 10.1333 5.93798 10.1333 5.86725C10.1333 5.79653 10.1052 5.7287 10.0552 5.67869C10.0052 5.62868 9.93739 5.60059 9.86667 5.60059H4.26667C4.19594 5.60059 4.12811 5.62868 4.0781 5.67869C4.0281 5.7287 4 5.79653 4 5.86725C4 5.93798 4.0281 6.0058 4.0781 6.05581C4.12811 6.10582 4.19594 6.13392 4.26667 6.13392Z" fill="black"/>
<path d="M1.33307 8.26673H3.19974C3.27046 8.26673 3.33829 8.23864 3.3883 8.18863C3.43831 8.13862 3.46641 8.07079 3.46641 8.00007C3.46641 7.92934 3.43831 7.86151 3.3883 7.8115C3.33829 7.76149 3.27046 7.7334 3.19974 7.7334H1.33307C1.26235 7.7334 1.19452 7.76149 1.14451 7.8115C1.0945 7.86151 1.06641 7.92934 1.06641 8.00007C1.06641 8.07079 1.0945 8.13862 1.14451 8.18863C1.19452 8.23864 1.26235 8.26673 1.33307 8.26673Z" fill="black"/>
<path d="M9.86667 7.7334H4.26667C4.19594 7.7334 4.12811 7.76149 4.0781 7.8115C4.0281 7.86151 4 7.92934 4 8.00007C4 8.07079 4.0281 8.13862 4.0781 8.18863C4.12811 8.23864 4.19594 8.26673 4.26667 8.26673H9.86667C9.93739 8.26673 10.0052 8.23864 10.0552 8.18863C10.1052 8.13862 10.1333 8.07079 10.1333 8.00007C10.1333 7.92934 10.1052 7.86151 10.0552 7.8115C10.0052 7.76149 9.93739 7.7334 9.86667 7.7334Z" fill="black"/>
<path d="M12.7997 6.6665H1.33307C1.26235 6.6665 1.19452 6.6946 1.14451 6.74461C1.0945 6.79462 1.06641 6.86245 1.06641 6.93317C1.06641 7.00389 1.0945 7.07172 1.14451 7.12173C1.19452 7.17174 1.26235 7.19984 1.33307 7.19984H12.7997C12.8705 7.19984 12.9383 7.17174 12.9883 7.12173C13.0383 7.07172 13.0664 7.00389 13.0664 6.93317C13.0664 6.86245 13.0383 6.79462 12.9883 6.74461C12.9383 6.6946 12.8705 6.6665 12.7997 6.6665Z" fill="black"/>
<path d="M10.1339 3.99964H10.9339C11.0046 3.99964 11.0724 3.97155 11.1224 3.92154C11.1724 3.87153 11.2005 3.8037 11.2005 3.73298C11.2005 3.66225 11.1724 3.59442 11.1224 3.54441C11.0724 3.4944 11.0046 3.46631 10.9339 3.46631H10.1339C10.0631 3.46631 9.9953 3.4944 9.94529 3.54441C9.89528 3.59442 9.86719 3.66225 9.86719 3.73298C9.86719 3.8037 9.89528 3.87153 9.94529 3.92154C9.9953 3.97155 10.0631 3.99964 10.1339 3.99964Z" fill="black"/>
<path d="M14.6663 6.6665H13.8663C13.7956 6.6665 13.7277 6.6946 13.6777 6.74461C13.6277 6.79462 13.5996 6.86245 13.5996 6.93317C13.5996 7.00389 13.6277 7.07172 13.6777 7.12173C13.7277 7.17174 13.7956 7.19984 13.8663 7.19984H14.6663C14.737 7.19984 14.8048 7.17174 14.8548 7.12173C14.9048 7.07172 14.9329 7.00389 14.9329 6.93317C14.9329 6.86245 14.9048 6.79462 14.8548 6.74461C14.8048 6.6946 14.737 6.6665 14.6663 6.6665Z" fill="black"/>
<path d="M14.6667 3.46631H12.0001C11.9293 3.46631 11.8615 3.4944 11.8115 3.54441C11.7615 3.59442 11.7334 3.66225 11.7334 3.73298C11.7334 3.8037 11.7615 3.87153 11.8115 3.92154C11.8615 3.97155 11.9293 3.99964 12.0001 3.99964H14.6667C14.7375 3.99964 14.8053 3.97155 14.8553 3.92154C14.9053 3.87153 14.9334 3.8037 14.9334 3.73298C14.9334 3.66225 14.9053 3.59442 14.8553 3.54441C14.8053 3.4944 14.7375 3.46631 14.6667 3.46631Z" fill="black"/>
<path d="M1.33307 8.7998C1.26235 8.7998 1.19452 8.8279 1.14451 8.87791C1.0945 8.92792 1.06641 8.99575 1.06641 9.06647V9.33314C1.06641 9.40386 1.0945 9.47169 1.14451 9.5217C1.19452 9.57171 1.26235 9.5998 1.33307 9.5998C1.4038 9.5998 1.47163 9.57171 1.52163 9.5217C1.57164 9.47169 1.59974 9.40386 1.59974 9.33314V9.06647C1.59974 8.99575 1.57164 8.92792 1.52163 8.87791C1.47163 8.8279 1.4038 8.7998 1.33307 8.7998Z" fill="black"/>
<path d="M2.39948 8.7998C2.32875 8.7998 2.26093 8.8279 2.21092 8.87791C2.16091 8.92792 2.13281 8.99575 2.13281 9.06647V9.33314C2.13281 9.40386 2.16091 9.47169 2.21092 9.5217C2.26093 9.57171 2.32875 9.5998 2.39948 9.5998C2.4702 9.5998 2.53803 9.57171 2.58804 9.5217C2.63805 9.47169 2.66615 9.40386 2.66615 9.33314V9.06647C2.66615 8.99575 2.63805 8.92792 2.58804 8.87791C2.53803 8.8279 2.4702 8.7998 2.39948 8.7998Z" fill="black"/>
<path d="M3.46589 8.7998C3.39516 8.7998 3.32733 8.8279 3.27732 8.87791C3.22731 8.92792 3.19922 8.99575 3.19922 9.06647V9.33314C3.19922 9.40386 3.22731 9.47169 3.27732 9.5217C3.32733 9.57171 3.39516 9.5998 3.46589 9.5998C3.53661 9.5998 3.60444 9.57171 3.65445 9.5217C3.70446 9.47169 3.73255 9.40386 3.73255 9.33314V9.06647C3.73255 8.99575 3.70446 8.92792 3.65445 8.87791C3.60444 8.8279 3.53661 8.7998 3.46589 8.7998Z" fill="black"/>
<path d="M4.53327 8.7998C4.46254 8.7998 4.39472 8.8279 4.34471 8.87791C4.2947 8.92792 4.2666 8.99575 4.2666 9.06647V9.33314C4.2666 9.40386 4.2947 9.47169 4.34471 9.5217C4.39472 9.57171 4.46254 9.5998 4.53327 9.5998C4.60399 9.5998 4.67182 9.57171 4.72183 9.5217C4.77184 9.47169 4.79993 9.40386 4.79993 9.33314V9.06647C4.79993 8.99575 4.77184 8.92792 4.72183 8.87791C4.67182 8.8279 4.60399 8.7998 4.53327 8.7998Z" fill="black"/>
<path d="M5.59967 8.7998C5.52895 8.7998 5.46112 8.8279 5.41111 8.87791C5.3611 8.92792 5.33301 8.99575 5.33301 9.06647V9.33314C5.33301 9.40386 5.3611 9.47169 5.41111 9.5217C5.46112 9.57171 5.52895 9.5998 5.59967 9.5998C5.6704 9.5998 5.73823 9.57171 5.78824 9.5217C5.83825 9.47169 5.86634 9.40386 5.86634 9.33314V9.06647C5.86634 8.99575 5.83825 8.92792 5.78824 8.87791C5.73823 8.8279 5.6704 8.7998 5.59967 8.7998Z" fill="black"/>
<path d="M6.66706 8.7998C6.59633 8.7998 6.5285 8.8279 6.4785 8.87791C6.42849 8.92792 6.40039 8.99575 6.40039 9.06647V9.33314C6.40039 9.40386 6.42849 9.47169 6.4785 9.5217C6.5285 9.57171 6.59633 9.5998 6.66706 9.5998C6.73778 9.5998 6.80561 9.57171 6.85562 9.5217C6.90563 9.47169 6.93372 9.40386 6.93372 9.33314V9.06647C6.93372 8.99575 6.90563 8.92792 6.85562 8.87791C6.80561 8.8279 6.73778 8.7998 6.66706 8.7998Z" fill="black"/>
<path d="M7.73346 8.7998C7.66274 8.7998 7.59491 8.8279 7.5449 8.87791C7.49489 8.92792 7.4668 8.99575 7.4668 9.06647V9.33314C7.4668 9.40386 7.49489 9.47169 7.5449 9.5217C7.59491 9.57171 7.66274 9.5998 7.73346 9.5998C7.80419 9.5998 7.87202 9.57171 7.92203 9.5217C7.97204 9.47169 8.00013 9.40386 8.00013 9.33314V9.06647C8.00013 8.99575 7.97204 8.92792 7.92203 8.87791C7.87202 8.8279 7.80419 8.7998 7.73346 8.7998Z" fill="black"/>
</g>
<defs>
<clipPath id="clip0_3160_239">
<rect width="16" height="16" fill="white"/>
</clipPath>
</defs>
</svg>
