<svg width="147" height="5" viewBox="0 0 147 5" fill="none" xmlns="http://www.w3.org/2000/svg">
<path d="M30.1334 3.6359L30.2097 3.75044C29.0263 3.59772 27.6901 3.75044 26.4303 3.67408L26.5067 3.71226C23.2999 3.75044 20.3603 3.59772 17.1917 3.52136C17.2299 3.52136 17.2681 3.55954 17.3063 3.55954C17.1536 3.52136 17.0009 3.48318 16.81 3.48318C16.7718 3.52136 16.8482 3.52136 16.9245 3.52136C16.2373 3.67408 14.9775 3.445 14.5576 3.55954C14.3667 3.55954 14.2904 3.48318 14.4049 3.445C11.9235 3.40682 9.28933 3.36865 6.76972 3.29229C6.65519 3.33047 6.61702 3.33047 6.65519 3.40682C4.47917 3.13957 2.18862 3.25411 0.0125897 3.29229C-0.063762 3.21593 0.241645 3.21593 0.0125897 3.17775C0.699756 3.06321 1.31057 3.29229 1.95956 3.17775L1.88321 3.13957C2.34132 3.10139 1.95956 3.29229 2.45585 3.21593C2.64673 3.17775 2.41767 3.13957 2.49402 3.13957C3.4866 3.17775 4.51734 3.10139 5.47174 3.25411C5.7008 3.13957 6.54067 3.25411 6.92243 3.13957C7.18966 3.17775 7.41871 3.17775 7.53324 3.25411C10.9691 3.17775 14.5576 3.29229 18.108 3.29229C19.7877 3.52136 21.7728 3.25411 23.758 3.33047V3.29229C24.407 3.36865 25.3614 3.36865 26.1249 3.33047L26.7739 3.445C31.4313 3.25411 36.1652 3.36865 40.8608 3.29229C46.2054 3.21593 50.901 3.06321 56.1311 3.36865C56.1311 3.33047 56.1693 3.33047 56.0166 3.33047C57.5055 3.36865 58.8798 3.29229 60.2923 3.33047V3.29229C62.0484 3.40682 63.8808 3.36865 65.6751 3.36865H66.3623C66.5532 3.36865 66.7822 3.33047 66.9731 3.29229C67.393 3.17775 67.7748 2.94867 68.1184 2.7196C68.8055 2.22327 69.4164 1.57422 70.0272 0.963351C70.7525 0.199765 71.936 -0.182029 73.0431 0.0852265C73.5775 0.199764 74.112 0.505199 74.5319 0.886992C74.9519 1.26878 75.2954 1.68876 75.6772 2.10873C76.059 2.49052 76.4789 2.87231 76.9752 3.13957C77.2042 3.25411 77.4715 3.36865 77.7387 3.445C78.0059 3.52136 78.2732 3.52136 78.5404 3.52136C79.6475 3.52136 80.7546 3.55954 81.8617 3.55954V3.52136C85.3739 3.6359 88.7334 3.36865 92.2074 3.445C95.7959 3.33047 99.5753 3.71226 103.202 3.55954C105.454 3.33047 108.394 3.8268 110.494 3.59772C114.807 3.21593 119.007 3.48318 123.321 3.67408C127.291 3.55954 131.299 3.86498 135.155 3.59772C136.988 3.78862 139.011 3.36865 141.034 3.445L140.958 3.52136C141.683 3.33047 142.6 3.78862 143.058 3.52136H142.981C143.363 3.36865 143.898 3.8268 144.127 3.67408L144.203 3.75044C144.661 3.78862 144.241 3.67408 144.623 3.6359C144.776 3.6359 144.661 3.75044 144.966 3.71226C145.043 3.445 146.112 3.78862 146.15 3.48318C145.883 3.48318 146.532 3.36865 145.959 3.29229C146.112 3.25411 146.913 3.29229 146.837 3.40682C146.913 3.55954 147.219 3.67408 146.723 3.78862L146.646 3.67408C146.493 3.78862 146.532 3.71226 146.455 3.78862C145.844 3.78862 145.73 3.94133 145.31 4.01769C145.005 3.90316 144.585 3.97951 144.356 3.97951L144.279 4.01769C144.127 4.13223 143.554 3.78862 143.745 3.97951C142.485 3.94133 141.034 3.94133 139.622 3.94133C139.431 3.86498 138.553 3.94133 138.858 3.78862C138.515 3.94133 137.446 4.01769 137.064 3.97951C137.064 3.97951 137.102 4.01769 137.14 4.01769C136.377 4.24677 136.224 3.8268 135.537 4.09405C135.422 3.90316 134.239 4.17041 133.857 3.94133C133.666 3.97951 133.666 4.01769 133.666 4.05587C132.368 4.05587 130.956 4.13223 129.887 4.13223C128.971 3.97951 127.635 4.20859 126.871 3.97951C126.222 4.01769 125.153 4.13223 124.237 4.01769L124.313 4.05587C123.283 4.05587 121.985 4.01769 121.259 3.90316C120.954 4.13223 120.496 4.09405 120.038 4.17041C119.35 4.05587 117.938 4.09405 116.907 4.01769C116.754 4.13223 116.029 3.97951 115.991 4.13223C113.013 3.8268 109.348 3.94133 106.18 4.17041H106.218C105.798 4.09405 105.34 3.90316 104.92 3.8268C104.882 3.8268 104.882 3.86498 104.958 3.86498C104.385 3.8268 103.851 3.97951 103.278 3.94133C103.278 3.94133 103.317 3.97951 103.393 3.97951C102.858 3.90316 102.286 4.09405 101.637 3.97951H101.599L101.179 3.94133C101.179 3.97951 101.217 4.05587 101.408 4.05587C96.4449 4.09405 91.3293 3.86498 86.2137 3.90316L86.4046 3.94133L85.412 3.86498C85.412 3.90316 85.4502 3.90316 85.5266 3.90316C84.2668 3.97951 82.9688 3.86498 81.7472 3.86498C81.7472 3.90316 81.938 3.94133 81.7853 3.97951C80.8691 3.86498 80.3347 4.13223 79.8765 3.86498C79.8384 3.86498 79.8002 3.94133 79.9147 3.94133C79.6093 3.94133 79.2657 3.90316 78.9603 3.90316C78.6549 3.90316 78.3495 3.90316 77.9678 3.86498C77.2424 3.75044 76.6698 3.36865 76.1353 2.94867C75.639 2.5287 75.1809 2.03237 74.7228 1.57422C74.4938 1.34514 74.3029 1.11607 74.0738 0.963351C73.8448 0.810633 73.5775 0.657916 73.3103 0.581558C72.8904 0.352482 72.3559 0.276123 71.8214 0.390661C71.287 0.46702 70.7907 0.734274 70.4089 1.07789C69.6454 1.84147 68.8819 2.79596 67.8511 3.29229L67.8893 3.33047C67.5457 3.48318 67.2021 3.6359 66.8204 3.67408C66.4386 3.71226 66.095 3.67408 65.7133 3.67408C64.988 3.67408 64.2626 3.67408 63.4991 3.67408C62.0102 3.71226 60.5214 3.75044 59.0325 3.71226C57.8109 3.75044 56.971 3.67408 55.7494 3.67408L55.7112 3.75044C53.6497 3.52136 51.3592 3.97951 49.1831 3.71226L49.3358 3.78862C48.9923 3.67408 48.0379 3.8268 48.1524 3.59772L47.7706 3.67408C46.3199 3.36865 45.0983 3.8268 43.304 3.59772L43.4186 3.6359C42.9223 3.59772 42.3878 3.55954 42.0061 3.59772C42.0824 3.59772 42.0442 3.6359 42.1588 3.6359C40.6699 3.86498 38.9902 3.59772 37.425 3.6359L37.6158 3.75044C36.8523 3.6359 35.4398 3.75044 34.4472 3.67408L34.5236 3.71226L34.0273 3.6359V3.71226C32.653 3.75044 31.4313 3.67408 30.1334 3.6359Z" fill="url(#paint0_linear_408_121)"/>
<path d="M30.1334 0.534998L30.2097 0.42046C29.0263 0.573178 27.6901 0.42046 26.4303 0.496819L26.5067 0.45864C23.2999 0.42046 20.3603 0.573177 17.1917 0.649536C17.2299 0.649536 17.2681 0.611357 17.3063 0.611357C17.1536 0.649536 17.0009 0.687715 16.81 0.687715C16.7718 0.649536 16.8482 0.649536 16.9245 0.649536C16.2373 0.496819 14.9775 0.725895 14.5576 0.611357C14.3667 0.611357 14.2904 0.687715 14.4049 0.725895C11.9235 0.764074 9.28933 0.802253 6.76972 0.878612C6.65519 0.840432 6.61702 0.840433 6.65519 0.764074C4.47917 1.03133 2.18862 0.916791 0.0125897 0.878612C-0.063762 0.95497 0.241645 0.95497 0.0125897 0.99315C0.699756 1.10769 1.31057 0.878612 1.95956 0.99315L1.88321 1.03133C2.34132 1.06951 1.95956 0.878612 2.45585 0.95497C2.64673 0.99315 2.41767 1.03133 2.49402 1.03133C3.4866 0.99315 4.51734 1.06951 5.47174 0.916791C5.7008 1.03133 6.54067 0.916791 6.92243 1.03133C7.18966 0.99315 7.41871 0.99315 7.53324 0.916791C10.9691 0.99315 14.5576 0.878612 18.108 0.878612C19.7877 0.649536 21.7728 0.916791 23.758 0.840433V0.878612C24.407 0.802253 25.3614 0.802253 26.1249 0.840433L26.7739 0.725895C31.4313 0.916791 36.1652 0.802253 40.8608 0.878612C46.2054 0.95497 50.901 1.10769 56.1311 0.802253C56.1311 0.840433 56.1693 0.840433 56.0166 0.840433C57.5055 0.802253 58.8798 0.878612 60.2923 0.840433V0.878612C62.0484 0.764074 63.8808 0.802253 65.6751 0.802253L66.3623 0.802253C66.5532 0.802253 66.7822 0.840432 66.9731 0.878612C67.393 0.99315 67.7748 1.22223 68.1184 1.4513C68.8055 1.94763 69.4164 2.59668 70.0272 3.20755C70.7525 3.97113 71.936 4.35293 73.0431 4.08567C73.5775 3.97113 74.112 3.6657 74.5319 3.28391C74.9519 2.90211 75.2954 2.48214 75.6772 2.06217C76.059 1.68038 76.4789 1.29858 76.9752 1.03133C77.2042 0.916791 77.4715 0.802253 77.7387 0.725895C78.0059 0.649536 78.2732 0.649536 78.5404 0.649536C79.6475 0.649536 80.7546 0.611357 81.8617 0.611357V0.649536C85.3739 0.534998 88.7334 0.802253 92.2074 0.725895C95.7959 0.840433 99.5753 0.45864 103.202 0.611357C105.454 0.840433 108.394 0.344102 110.494 0.573178C114.807 0.95497 119.007 0.687715 123.321 0.496819C127.291 0.611357 131.299 0.305923 135.155 0.573178C136.988 0.382281 139.011 0.802253 141.034 0.725895L140.958 0.649536C141.683 0.840432 142.6 0.382281 143.058 0.649536H142.981C143.363 0.802253 143.898 0.344102 144.127 0.496819L144.203 0.42046C144.661 0.382281 144.241 0.496819 144.623 0.534998C144.776 0.534998 144.661 0.42046 144.966 0.45864C145.043 0.725895 146.112 0.382281 146.15 0.687715C145.883 0.687715 146.532 0.802253 145.959 0.878612C146.112 0.916791 146.913 0.878612 146.837 0.764074C146.913 0.611357 147.219 0.496819 146.723 0.382281L146.646 0.496819C146.493 0.382281 146.532 0.45864 146.455 0.382281C145.844 0.382281 145.73 0.229564 145.31 0.153205C145.005 0.267743 144.585 0.191385 144.356 0.191385L144.279 0.153205C144.127 0.0386676 143.554 0.382281 143.745 0.191385C142.485 0.229564 141.034 0.229564 139.622 0.229564C139.431 0.305923 138.553 0.229564 138.858 0.382281C138.515 0.229564 137.446 0.153205 137.064 0.191385C137.064 0.191385 137.102 0.153205 137.14 0.153205C136.377 -0.0758703 136.224 0.344102 135.537 0.0768468C135.422 0.267743 134.239 0.000488236 133.857 0.229564C133.666 0.191385 133.666 0.153205 133.666 0.115026C132.368 0.115026 130.956 0.0386675 129.887 0.0386675C128.971 0.191385 127.635 -0.037691 126.871 0.191385C126.222 0.153205 125.153 0.0386676 124.237 0.153205L124.313 0.115026C123.283 0.115026 121.985 0.153205 121.259 0.267743C120.954 0.0386675 120.496 0.0768469 120.038 0.000488281C119.35 0.115026 117.938 0.0768469 116.907 0.153205C116.754 0.0386676 116.029 0.191385 115.991 0.0386675C113.013 0.344102 109.348 0.229564 106.18 0.000488281L106.218 0.000488281C105.798 0.0768469 105.34 0.267743 104.92 0.344102C104.882 0.344102 104.882 0.305922 104.958 0.305922C104.385 0.344102 103.851 0.191385 103.278 0.229564C103.278 0.229564 103.317 0.191385 103.393 0.191385C102.858 0.267743 102.286 0.0768468 101.637 0.191385L101.599 0.191385L101.179 0.229564C101.179 0.191385 101.217 0.115026 101.408 0.115026C96.4449 0.0768467 91.3293 0.305922 86.2137 0.267743L86.4046 0.229564L85.412 0.305922C85.412 0.267743 85.4502 0.267743 85.5266 0.267743C84.2668 0.191385 82.9688 0.305922 81.7472 0.305922C81.7472 0.267743 81.938 0.229564 81.7853 0.191385C80.8691 0.305923 80.3347 0.0386675 79.8765 0.305922C79.8384 0.305922 79.8002 0.229564 79.9147 0.229564C79.6093 0.229564 79.2657 0.267743 78.9603 0.267743C78.6549 0.267743 78.3495 0.267743 77.9678 0.305922C77.2424 0.42046 76.6698 0.802253 76.1353 1.22223C75.639 1.6422 75.1809 2.13853 74.7228 2.59668C74.4938 2.82576 74.3029 3.05483 74.0738 3.20755C73.8448 3.36027 73.5775 3.51298 73.3103 3.58934C72.8904 3.81842 72.3559 3.89478 71.8214 3.78024C71.287 3.70388 70.7907 3.43662 70.4089 3.09301C69.6454 2.32942 68.8819 1.37494 67.8511 0.878612L67.8893 0.840433C67.5457 0.687716 67.2021 0.534998 66.8204 0.496819C66.4386 0.45864 66.095 0.496819 65.7133 0.496819C64.988 0.496819 64.2626 0.496819 63.4991 0.496819C62.0102 0.45864 60.5214 0.42046 59.0325 0.45864C57.8109 0.42046 56.971 0.496819 55.7494 0.496819L55.7112 0.42046C53.6497 0.649536 51.3592 0.191385 49.1831 0.45864L49.3358 0.382281C48.9923 0.496819 48.0379 0.344102 48.1524 0.573178L47.7706 0.496819C46.3199 0.802253 45.0983 0.344102 43.304 0.573178L43.4186 0.534998C42.9223 0.573178 42.3878 0.611357 42.0061 0.573178C42.0824 0.573178 42.0442 0.534998 42.1588 0.534998C40.6699 0.305923 38.9902 0.573178 37.425 0.534998L37.6158 0.42046C36.8523 0.534998 35.4398 0.42046 34.4472 0.496819L34.5236 0.45864L34.0273 0.534998V0.45864C32.653 0.42046 31.4313 0.496819 30.1334 0.534998Z" fill="url(#paint1_linear_408_121)"/>
<defs>
<linearGradient id="paint0_linear_408_121" x1="-2.07601" y1="2.09052" x2="146.967" y2="2.09052" gradientUnits="userSpaceOnUse">
<stop stop-color="#0F6CBD" stop-opacity="0"/>
<stop offset="0.25" stop-color="#0F6CBD"/>
<stop offset="0.500694" stop-color="#0F6CBD"/>
<stop offset="0.75" stop-color="#0F6CBD"/>
<stop offset="1" stop-color="#0F6CBD" stop-opacity="0"/>
</linearGradient>
<linearGradient id="paint1_linear_408_121" x1="-2.07601" y1="2.08038" x2="146.967" y2="2.08038" gradientUnits="userSpaceOnUse">
<stop stop-color="#0F6CBD" stop-opacity="0"/>
<stop offset="0.25" stop-color="#0F6CBD"/>
<stop offset="0.500694" stop-color="#0F6CBD"/>
<stop offset="0.75" stop-color="#0F6CBD"/>
<stop offset="1" stop-color="#0F6CBD" stop-opacity="0"/>
</linearGradient>
</defs>
</svg>
