<svg width="16" height="16" viewBox="0 0 16 16" fill="none" xmlns="http://www.w3.org/2000/svg">
<path d="M13.6875 13.25H2.3125C1.58625 13.25 1 12.6637 1 11.9375V4.0625C1 3.33625 1.58625 2.75 2.3125 2.75H13.6875C14.4137 2.75 15 3.33625 15 4.0625V11.9375C15 12.6637 14.4137 13.25 13.6875 13.25ZM2.3125 3.625C2.0675 3.625 1.875 3.8175 1.875 4.0625V11.9375C1.875 12.1825 2.0675 12.375 2.3125 12.375H13.6875C13.9325 12.375 14.125 12.1825 14.125 11.9375V4.0625C14.125 3.8175 13.9325 3.625 13.6875 3.625H2.3125Z" fill="#4E4E4E"/>
<path d="M7.99999 9.7148C7.38749 9.7148 6.82749 9.4698 6.40749 9.02355L1.81374 4.14105C1.64749 3.96605 1.65624 3.68605 1.83124 3.5198C2.00624 3.35355 2.28624 3.3623 2.45249 3.5373L7.04624 8.4198C7.54499 8.95355 8.45499 8.95355 8.95374 8.4198L13.5475 3.54605C13.7137 3.37105 13.9937 3.3623 14.1687 3.52855C14.3437 3.6948 14.3525 3.9748 14.1862 4.1498L9.59249 9.0323C9.17249 9.47855 8.61249 9.72355 7.99999 9.72355V9.7148Z" fill="#4E4E4E"/>
</svg>
