<svg width="24" height="25" viewBox="0 0 24 25" fill="none" xmlns="http://www.w3.org/2000/svg">
<path d="M10.75 13.6035L5.82324 8.67676C5.77639 8.62992 5.75006 8.56624 5.75 8.5V5.5C5.75 5.4337 5.77636 5.37013 5.82324 5.32324C5.87013 5.27636 5.9337 5.25 6 5.25H18C18.0663 5.25 18.1299 5.27636 18.1768 5.32324C18.2236 5.37013 18.25 5.43369 18.25 5.5V8.5L18.2451 8.54883C18.2355 8.59688 18.2119 8.6416 18.1768 8.67676L13.25 13.6035V17.5L13.2451 17.5488C13.2355 17.5969 13.2119 17.6416 13.1768 17.6768L11.1768 19.6768C11.1418 19.7117 11.0973 19.7355 11.0488 19.7451C11.0003 19.7548 10.95 19.7494 10.9043 19.7305C10.8587 19.7115 10.8194 19.6797 10.792 19.6387C10.7646 19.5976 10.75 19.5493 10.75 19.5V13.6035Z" stroke="#5B6871" stroke-width="1.5"/>
</svg>
