<svg width="16" height="16" viewBox="0 0 16 16" fill="none" xmlns="http://www.w3.org/2000/svg">
<path d="M4.85403 1.30993L5.62485 1.07758C6.49838 0.814277 7.43169 1.2398 7.80578 2.07194L8.40134 3.39675C8.7202 4.10603 8.55217 4.9396 7.98342 5.46996L6.99642 6.39036C6.96757 6.41726 6.9493 6.4536 6.94493 6.4928C6.91563 6.75512 7.09346 7.26596 7.50315 7.97557C7.80107 8.4916 8.07073 8.85348 8.30025 9.05701C8.46017 9.19881 8.5482 9.22948 8.58567 9.21832L9.91351 8.81236C10.657 8.58505 11.4627 8.85611 11.9176 9.48657L12.7635 10.659C13.296 11.3969 13.2002 12.415 12.5395 13.0407L11.9541 13.5951C11.3223 14.1934 10.423 14.4163 9.58499 14.1824C7.76587 13.6747 6.13486 12.1395 4.67388 9.60905C3.21088 7.07505 2.69753 4.89242 3.17076 3.06161C3.38732 2.22376 4.02546 1.55968 4.85403 1.30993ZM5.13997 2.25854C4.64283 2.40839 4.25994 2.80684 4.13 3.30955C3.73194 4.84955 4.18694 6.7841 5.53192 9.11367C6.87509 11.4401 8.32092 12.8009 9.85135 13.2281C10.3542 13.3685 10.8938 13.2347 11.2728 12.8757L11.8583 12.3213C12.1586 12.0369 12.2021 11.5741 11.9601 11.2387L11.1141 10.0663C10.9074 9.77972 10.5411 9.65652 10.2032 9.75984L8.87203 10.1668C8.09942 10.3971 7.39816 9.77528 6.64511 8.47096C6.13764 7.59199 5.90111 6.91253 5.96028 6.38283C5.99092 6.10843 6.11878 5.85406 6.32071 5.66575L7.30772 4.74536C7.56624 4.50428 7.64262 4.12539 7.49768 3.80299L6.90212 2.47818C6.73208 2.09993 6.30785 1.90651 5.91079 2.0262L5.13997 2.25854Z" fill="#4E4E4E"/>
</svg>
