<svg width="24" height="24" viewBox="0 0 24 24" fill="none" xmlns="http://www.w3.org/2000/svg">
<path d="M7.1 17.0154C6.92 17.0154 6.74 16.9654 6.57 16.8754C6.22 16.6854 6 16.3154 6 15.9154V8.09537C6 7.69537 6.22 7.32538 6.57 7.13538C6.92 6.94538 7.35 6.95537 7.69 7.16537L10.72 9.08537C10.95 9.23537 11.02 9.54537 10.87 9.77537C10.7983 9.88662 10.6853 9.96488 10.556 9.993C10.4267 10.0211 10.2914 9.9968 10.18 9.92537L7.15 8.00538C7.15 8.00538 7.08 7.98538 7.05 8.00538C7.02 8.02538 7 8.05537 7 8.09537V15.9154C7 15.9154 7.02 15.9854 7.05 16.0054C7.08 16.0254 7.12 16.0254 7.15 16.0054L10.18 14.0854C10.2914 14.014 10.4267 13.9896 10.556 14.0178C10.6853 14.0459 10.7983 14.1241 10.87 14.2354C10.9414 14.3468 10.9657 14.482 10.9376 14.6114C10.9095 14.7407 10.8312 14.8536 10.72 14.9254L7.69 16.8454C7.51 16.9554 7.31 17.0154 7.1 17.0154Z" fill="#3425FF"/>
<path d="M11.0502 16.9855C10.8702 16.9855 10.6902 16.9455 10.5302 16.8555C10.1702 16.6655 9.9502 16.2955 9.9502 15.8855V8.11549C9.9502 7.70549 10.1702 7.33549 10.5302 7.14549C10.8902 6.95549 11.3202 6.97549 11.6602 7.19549L17.5302 11.0855C17.8402 11.2855 18.0202 11.6355 18.0202 12.0055C18.0202 12.3755 17.8402 12.7155 17.5302 12.9255L11.6602 16.8155C11.4802 16.9355 11.2702 16.9955 11.0502 16.9955V16.9855ZM11.0502 8.01549C11.0502 8.01549 11.0202 8.01549 11.0002 8.02549C10.9702 8.04549 10.9502 8.07549 10.9502 8.11549V15.8855C10.9502 15.8855 10.9702 15.9555 11.0002 15.9755C11.0302 15.9955 11.0702 15.9955 11.1002 15.9755L16.9702 12.0855L17.2502 11.5055L16.9702 11.9255L11.1002 8.03549C11.1002 8.03549 11.0602 8.01549 11.0502 8.01549Z" fill="#3425FF"/>
</svg>
