<svg width="20" height="22" viewBox="0 0 20 22" fill="none" xmlns="http://www.w3.org/2000/svg">
<g clip-path="url(#clip0_1_1965)">
<path d="M8.88281 1.99805C9.47901 1.33229 10.521 1.33229 11.1172 1.99805L12.1016 3.09668C12.608 3.66239 13.3444 3.96769 14.1025 3.92578L15.5752 3.84473C16.4677 3.79543 17.2046 4.53233 17.1553 5.4248L17.0742 6.89746C17.0323 7.65558 17.3376 8.392 17.9033 8.89844L19.002 9.88281C19.6677 10.479 19.6677 11.521 19.002 12.1172L17.9033 13.1016C17.3376 13.608 17.0323 14.3444 17.0742 15.1025L17.1553 16.5752C17.2046 17.4677 16.4677 18.2046 15.5752 18.1553L14.1025 18.0742C13.3444 18.0323 12.608 18.3376 12.1016 18.9033L11.1172 20.002C10.521 20.6677 9.47901 20.6677 8.88281 20.002L7.89844 18.9033C7.392 18.3376 6.65558 18.0323 5.89746 18.0742L4.4248 18.1553C3.53233 18.2046 2.79543 17.4677 2.84473 16.5752L2.92578 15.1025C2.96769 14.3444 2.66239 13.608 2.09668 13.1016L0.998047 12.1172C0.332287 11.521 0.332287 10.479 0.998047 9.88281L2.09668 8.89844C2.66239 8.392 2.96769 7.65559 2.92578 6.89746L2.84473 5.4248C2.79543 4.53233 3.53233 3.79543 4.4248 3.84473L5.89746 3.92578C6.65558 3.96769 7.392 3.66239 7.89844 3.09668L8.88281 1.99805Z" stroke="white"/>
<path d="M6.59657 11.2218L8.27546 12.7071C8.46136 12.8716 8.74492 12.8561 8.9118 12.6723L12.7008 8.50021" stroke="white" stroke-width="1.36078" stroke-linecap="round"/>
</g>
<defs>
<clipPath id="clip0_1_1965">
<rect width="20" height="22" rx="10" fill="white"/>
</clipPath>
</defs>
</svg>
