<svg width="31" height="31" viewBox="0 0 31 31" fill="none" xmlns="http://www.w3.org/2000/svg">
<path d="M15.5 19.3752V2.5835M15.5 2.5835L19.375 7.10433M15.5 2.5835L11.625 7.10433" stroke="#3425FF" stroke-width="1.9375" stroke-linecap="round" stroke-linejoin="round"/>
<path d="M10.3335 28.4165H20.6668C24.3197 28.4165 26.1474 28.4165 27.2815 27.2824C28.4168 26.1458 28.4168 24.3206 28.4168 20.6665V19.3749C28.4168 15.722 28.4168 13.8956 27.2815 12.7602C26.2895 11.7682 24.7679 11.6429 21.9585 11.6274M9.04183 11.6274C6.23245 11.6429 4.71087 11.7682 3.71887 12.7602C2.5835 13.8956 2.5835 15.722 2.5835 19.3749V20.6665C2.5835 24.3206 2.5835 26.1471 3.71887 27.2824C4.10637 27.6699 4.57395 27.9244 5.16683 28.0923" stroke="#3425FF" stroke-width="1.9375" stroke-linecap="round"/>
</svg>
