<svg width="14" height="16" viewBox="0 0 14 16" fill="none" xmlns="http://www.w3.org/2000/svg">
<path d="M5.75 9.10352L0.823242 4.17676C0.776392 4.12992 0.750057 4.06624 0.75 4V1C0.75 0.933696 0.776358 0.870126 0.823242 0.823242C0.870126 0.776358 0.933696 0.75 1 0.75H13C13.0663 0.75 13.1299 0.776359 13.1768 0.823242C13.2236 0.870125 13.25 0.933695 13.25 1V4L13.2451 4.04883C13.2355 4.09688 13.2119 4.1416 13.1768 4.17676L8.25 9.10352V13L8.24512 13.0488C8.2355 13.0969 8.21192 13.1416 8.17676 13.1768L6.17676 15.1768C6.14182 15.2117 6.09727 15.2355 6.04883 15.2451C6.00034 15.2548 5.94997 15.2494 5.9043 15.2305C5.85868 15.2115 5.81943 15.1797 5.79199 15.1387C5.76459 15.0976 5.75004 15.0493 5.75 15V9.10352Z" fill="#5B6871" stroke="#5B6871" stroke-width="1.5"/>
</svg>
